<svg xmlns="http://www.w3.org/2000/svg" viewBox="0 0 1474.25 1943.04"><defs><style>.cls-1{font-size:182.99px;font-family:MyriadPro-Regular, Myriad Pro;}.cls-2{letter-spacing:-0.05em;}</style></defs><g id="_1" data-name="1"><polygon points="125.45 1403.05 40.57 1403.05 43.74 1591.34 132.17 1596.31 138.89 1805.76 459.53 1805.76 455.69 1931.52 601.61 1943.04 601.61 1800 960.41 1800 960.27 1849.71 1031.67 1847.97 1033.67 1797.12 1091.21 1800 1096.01 1898.88 1278.41 1906.56 1272.65 1799.04 1443.53 1795.2 1406.09 1734.72 1405.13 1757.76 1232.87 1759.68 1238.09 1870.08 1131.53 1863.36 1133.45 1761.6 557.45 1764.48 563.21 1901.76 496.97 1896.96 500.81 1763.52 177.29 1765.44 127.37 10.56 86.09 10.56 98.57 361.45 0 364.62 12.88 618.42 103.39 633.37 125.45 1403.05"/><polyline points="1405.13 1757.76 1433.45 39.84 1397.45 40.32 1474.25 0 1443.53 1795.2"/><polyline points="1474.25 0 86.09 10.56 128.46 48.97 1433.45 39.84"/><polygon points="1044.65 147.63 1084.49 149.76 1076.81 1660.21 1037.45 1660.21 1044.65 147.63"/><polygon points="1148.81 158.72 1188.65 158.72 1173.77 1644.75 1133.93 1644.75 1148.81 158.72"/><polygon points="1238.09 140.89 1276.97 140.89 1252.49 1673.2 1212.65 1673.2 1238.09 140.89"/><polygon points="1326.41 190.53 1365.77 190.53 1334.57 1637.64 1294.25 1637.64 1326.41 190.53"/><polygon points="730.69 1234.56 734.09 1274.4 875.79 1267.68 875.79 1229.28 730.69 1234.56"/><path d="M1271.18,1089.92l-3.18,20.64s-130.08-10.14-121.44,51.09c0,0-9,55.47,124.62,46.83v20.64s-136.62,16.26-145.26-67.47C1125.92,1161.65,1111.15,1083.2,1271.18,1089.92Z" transform="translate(-406.23 -123.68)"/><path d="M1219,1037.6s-132,2.88-124.8,134.4c0,0,.87,104.16,121.64,112.8,0,0,102.52,1.92,123.16-111.84,0,0,11.52-118.08-117.6-135.36l13.92-37.44s2.54.32,6.93,1.2c31.74,6.4,160.38,42.37,129.39,201.12,0,0-25.2,143.28-199.44,116.64,0,0-144.72-41.76-113-199.44,0,0,38.88-129.6,171.36-119.52l14.4,5.44-13.12,31.68-21.76-1.6" transform="translate(-406.23 -123.68)"/><path d="M1335.2,877.92,1346.4,916s-305.92,89.92-321.28-144.32c0,0,16.32-118.08,225.6-123.84l103.14,4.8L1349.6,691s-174.72-17.28-249.6,31.68c0,0-86.4,64.32,14.4,147.84C1114.4,870.56,1194.08,916,1335.2,877.92Z" transform="translate(-406.23 -123.68)"/><polygon points="498.89 151.85 536.33 151.85 601.61 1610.25 564.17 1610.25 498.89 151.85"/><polygon points="396.17 171.23 434.57 171.23 498.89 1610.25 457.61 1610.25 396.17 171.23"/><polygon points="282.89 199.6 322.25 199.6 387.53 1605.12 348.17 1610.25 282.89 199.6"/><polygon points="176.33 181.65 213.77 181.65 277.13 1596.31 237.77 1596.66 176.33 181.65"/><path d="M582.56,222.08s5.44-7.2,13.44-8.16c0,0,15.68-2.56,21.44,13.44,0,0,8,22.4-17.44,27.52,0,0-29-1.6-19.36-31.36l-14.4-13.12S543.52,243,576.8,268c0,0,35.52,18.88,56.16-13.76,0,0,17.12-26.58-7.84-50.41,0,0-24.64-21.29-53.12,0,0,0-11.84,10.73-6.4,13.93" transform="translate(-406.23 -123.68)"/><path d="M1759.35,199.76s5.44-7.2,13.44-8.16c0,0,15.68-2.56,21.44,13.44,0,0,8,22.4-17.44,27.52,0,0-29-1.6-19.36-31.36L1743,188.08s-22.72,32.64,10.56,57.6c0,0,35.52,18.88,56.16-13.76,0,0,17.12-26.58-7.84-50.41,0,0-24.64-21.29-53.12,0,0,0-11.84,10.73-6.4,13.93" transform="translate(-406.23 -123.68)"/><path d="M1748.14,1812.6s5.44-7.2,13.44-8.16c0,0,15.68-2.56,21.44,13.44,0,0,8,22.4-17.44,27.52,0,0-29-1.6-19.36-31.36l-14.4-13.12s-22.72,32.64,10.56,57.6c0,0,35.52,18.88,56.16-13.76,0,0,17.12-26.59-7.84-50.41,0,0-24.64-21.3-53.12,0,0,0-11.84,10.73-6.4,13.93" transform="translate(-406.23 -123.68)"/><path d="M643.83,1812.6s5.44-7.2,13.44-8.16c0,0,15.68-2.56,21.44,13.44,0,0,8,22.4-17.44,27.52,0,0-29-1.6-19.36-31.36l-14.4-13.12s-22.72,32.64,10.56,57.6c0,0,35.52,18.88,56.16-13.76,0,0,17.12-26.59-7.84-50.41,0,0-24.64-21.3-53.12,0,0,0-11.84,10.73-6.4,13.93" transform="translate(-406.23 -123.68)"/><path d="M1035,428.8S1064,597.92,1225,581.6c0,0,129.75-10,114.68-165.3,0,0-47.28,144.18-150.21,124C1189.49,540.32,1059.32,500.64,1035,428.8Z" transform="translate(-406.23 -123.68)"/><polyline points="1423.33 1795.65 1388.8 1757.94 430.48 1763.94 430.48 1805.76 1411.13 1798.08"/></g><g id="WM"><text class="cls-1" transform="translate(628.79 1700.74)"><tspan class="cls-2">Y</tspan><tspan x="89.3" y="0">uyu</tspan></text></g></svg>