<svg id="Layer_34" data-name="Layer 34" xmlns="http://www.w3.org/2000/svg" viewBox="0 0 1243.44 2014.99"><path d="M1222.56,216.5h20.88l-2.88,1513.44s-48.61,157-327.31,212.64c0,0-188.29,55.35-301.73,57.81,0,0-313.57,84.24-605.11-151.91L0,192l21.6,11.52L23.42,1828s250.18,226,591.46,148.21c0,0,493.92-30.24,604.8-250.56Z"/><path d="M1243.44,216.5S1230.6,47,812.58,14.64c0,0-350.82-49.31-569.7,33.07C242.88,47.71,70.37,86.58,0,192l21.6,11.52S143.24,53.65,333.22,47.71c0,0,298.82-51.46,554.78,0,0,0,281.28,28.63,334.56,168.79"/><path d="M304.32,201.14l28.9,12.38L316.93,1856.19s250.43,71.67,313.79,47.35c0,0,349.77-37.76,412-80,0,0,124.12-38.41,135.2-99.84l-7.68-1486.89,20-20.31L1201,1725.62S1135.58,1852.34,906,1881.14l-284.3,47.29s-292.44-18.13-328.92-65.35"/><path d="M333.22,213.52s113.08-85.86,264.83-89.84c0,0,313,3.65,353.31,22.31,0,0,166.73,22.83,218.88,90.82l20-20.31s-125.63-74.41-248.51-97.69L609.6,97.5s-226.19,15.94-305.28,116"/><path d="M292.8,51.19s-104.68,68.76-77.3,285l2.42,1504.59s16.56,104.83,306.84,149.37l-86,10.2s-188.16-34.77-249.6-155.73V213.52S210.75,77.89,266.25,51.19"/><path d="M255.36,1418.42s25-1,25,24c0,0,2.88,25.92-18.24,33.6,0,0-30.72,8.64-32.64-25C229.44,1451.06,221.38,1426.33,255.36,1418.42Z"/><path d="M263.34,996.5s25-1,25,24c0,0,2.88,25.92-18.24,33.6,0,0-30.72,8.64-32.64-25C237.42,1029.14,229.35,1004.41,263.34,996.5Z"/><path d="M260.35,559.19s25-1,25,24c0,0,2.88,25.92-18.24,33.6,0,0-30.72,8.64-32.64-25C234.43,591.83,226.37,567.11,260.35,559.19Z"/><path d="M272.83,137.86s25-1,25,24c0,0,2.88,25.92-18.24,33.6,0,0-30.72,8.64-32.64-25C246.91,170.5,238.85,145.78,272.83,137.86Z"/><path d="M582.79,28.79s25-1,25,24c0,0,2.88,25.92-18.24,33.6,0,0-30.72,8.64-32.64-25C556.87,61.43,548.8,36.7,582.79,28.79Z"/><path d="M942.68,58.09s25-1,25,24c0,0,2.88,25.92-18.24,33.6,0,0-30.72,8.64-32.64-25C916.76,90.73,908.7,66,942.68,58.09Z"/><path d="M270,1844.94s25-1,25,24c0,0,2.88,25.92-18.24,33.6,0,0-30.72,8.64-32.64-25C244,1877.58,236,1852.86,270,1844.94Z"/><path d="M623.5,1928.43s21.57-.71,21.57,17.8c0,0,2.48,19.23-15.77,24.92,0,0-26.54,6.41-28.2-18.51C601.1,1952.64,594.13,1934.3,623.5,1928.43Z"/><path d="M892.23,1886.9s20.18-.61,20.18,15.15c0,0,2.33,16.36-14.75,21.21,0,0-24.84,5.46-26.39-15.76C871.27,1907.5,864.75,1891.9,892.23,1886.9Z"/><path d="M1195.41,1737.15s16-.48,16,12c0,0,1.84,13-11.71,16.8,0,0-19.72,4.32-21-12.48C1178.77,1753.47,1173.6,1741.11,1195.41,1737.15Z"/><polyline points="21.67 264.5 189.12 264.5 189.12 278.89 21.67 278.89"/><polyline points="21.67 321.2 189.12 321.2 189.12 335.6 21.67 335.6"/><polyline points="23.13 366.77 190.58 366.77 190.58 381.17 23.13 381.17"/><polyline points="21.67 405.14 189.12 405.14 189.12 419.54 21.67 419.54"/><polyline points="20.44 443.51 187.89 443.51 187.89 457.9 20.44 457.9"/><polyline points="20.32 481.87 187.78 481.87 187.78 496.27 20.32 496.27"/><polyline points="20.32 538.58 187.78 538.58 187.78 552.98 20.32 552.98"/><polyline points="21.78 584.15 189.24 584.15 189.24 598.54 21.78 598.54"/><polyline points="20.32 622.51 187.78 622.51 187.78 636.91 20.32 636.91"/><polyline points="19.1 660.88 186.55 660.88 186.55 675.28 19.1 675.28"/><polyline points="23.01 692.43 190.46 692.43 190.46 706.83 23.01 706.83"/><polyline points="23.01 749.13 190.46 749.13 190.46 763.53 23.01 763.53"/><polyline points="24.47 794.7 191.92 794.7 191.92 809.1 24.47 809.1"/><polyline points="23.01 833.07 190.46 833.07 190.46 847.47 23.01 847.47"/><polyline points="21.78 871.44 189.24 871.44 189.24 885.84 21.78 885.84"/><polyline points="21.67 912.22 189.12 912.22 189.12 926.61 21.67 926.61"/><polyline points="21.67 968.92 189.12 968.92 189.12 983.32 21.67 983.32"/><polyline points="23.13 1014.49 190.58 1014.49 190.58 1028.88 23.13 1028.88"/><polyline points="21.67 1052.86 189.12 1052.86 189.12 1067.25 21.67 1067.25"/><polyline points="20.44 1091.22 187.89 1091.22 187.89 1105.62 20.44 1105.62"/><polyline points="23.01 1121.87 190.46 1121.87 190.46 1136.27 23.01 1136.27"/><polyline points="23.01 1178.58 190.46 1178.58 190.46 1192.97 23.01 1192.97"/><polyline points="24.47 1224.14 191.92 1224.14 191.92 1238.54 24.47 1238.54"/><polyline points="23.01 1262.51 190.46 1262.51 190.46 1276.91 23.01 1276.91"/><polyline points="21.78 1300.88 189.24 1300.88 189.24 1315.28 21.78 1315.28"/><polyline points="22.9 1333.1 190.35 1333.1 190.35 1347.5 22.9 1347.5"/><polyline points="22.9 1389.81 190.35 1389.81 190.35 1404.21 22.9 1404.21"/><polyline points="24.35 1435.38 191.81 1435.38 191.81 1449.77 24.35 1449.77"/><polyline points="22.9 1473.74 190.35 1473.74 190.35 1488.14 22.9 1488.14"/><polyline points="21.67 1512.11 189.12 1512.11 189.12 1526.51 21.67 1526.51"/><polyline points="21.67 1546.89 189.12 1546.89 189.12 1561.29 21.67 1561.29"/><polyline points="21.67 1603.6 189.12 1603.6 189.12 1618 21.67 1618"/><polyline points="23.13 1649.16 190.58 1649.16 190.58 1663.56 23.13 1663.56"/><polyline points="21.67 1687.53 189.12 1687.53 189.12 1701.93 21.67 1701.93"/><polyline points="20.44 1725.9 187.89 1725.9 187.89 1740.3 20.44 1740.3"/><polyline points="21.63 1758.64 189.08 1758.64 189.08 1773.03 21.63 1773.03"/><polyline points="21.63 1815.34 189.08 1815.34 189.08 1829.74 21.63 1829.74"/></svg>