<svg id="Layer_37" data-name="Layer 37" xmlns="http://www.w3.org/2000/svg" viewBox="0 0 841.32 1562.63"><polyline points="696 2.39 696 11.63 696 1520.87 675.84 1520.87 676.56 2.39"/><path d="M703.2,28.55,708,11.63s9.44-22.28-69.12-5.16L55.2,55.43S-3.36,69.83,1.44,139.91L-1.44,1434s22.08,71,121.92,43.2l1-19.2s-99.84,19.2-101.76-35.52V130.31S14.88,67,109.92,74.63l576-51.84" transform="translate(1.44)"/><path d="M708,11.63s52.8.6,37.44,150.36l-2.88,1256.64h17.28v144H722.4l-14-1530.24L690.72,20.87" transform="translate(1.44)"/><path d="M745.44,162h65.28s36.48,14.4,27.84,66.24l1,1153s-7.68,71-79.68,57.6v-20.16s57.6,22.08,61.44-49.92L817.44,220.55s4.87-46.09-33.6-36.48h-49l.65-22.08" transform="translate(1.44)"/><polyline points="122.88 1457.99 675.85 1500.23 736.32 1526.15 726.72 1549.7 675.84 1520.87 178.56 1496.39 159.36 1525.19 145.92 1503.85 163.2 1483.66 101.37 1481.75"/><path d="M152.27,1503.85l-8.75-27.62-23,1,8.64,39.36s25.92,9.6,77.76,10.56l528,35.52-30.43-24.73" transform="translate(1.44)"/></svg>