<svg xmlns="http://www.w3.org/2000/svg" viewBox="0 0 1079.22 2004.48"><g id="Layer_37" data-name="Layer 37"><polyline points="892.8 3.06 892.8 14.92 892.8 1950.91 866.94 1950.91 867.87 3.06"/><path d="M903.89,39.68,910,18s12.12-28.58-88.66-6.62L72.66,74.16s-75.12,18.48-69,108.37L0,1842.53s28.32,91.13,156.39,55.41l1.24-24.63s-128.08,24.63-130.54-45.56V170.22S20.93,88.94,142.85,98.79l738.87-66.5" transform="translate(0 -3.06)"/><path d="M910,18s67.73.77,48,192.87l-3.69,1612h22.16v184.71h-48L910.5,44.61,887.88,29.83" transform="translate(0 -3.06)"/><path d="M958.07,210.85h83.74s46.79,18.48,35.71,85l1.23,1479s-9.85,91.13-102.21,73.89v-25.86s73.89,28.32,78.81-64L1050.43,286s6.25-59.11-43.1-46.79H944.52l.84-28.33" transform="translate(0 -3.06)"/><polyline points="157.63 1870.25 866.96 1924.43 944.52 1957.68 932.21 1987.9 866.94 1950.91 229.05 1919.51 204.42 1956.45 187.18 1929.08 209.35 1903.18 130.04 1900.73"/><path d="M197.17,1932.14,186,1896.71l-29.56,1.23,11.09,50.49s33.25,12.32,99.75,13.55l677.29,45.56-39-31.72" transform="translate(0 -3.06)"/><g id="Layer_40" data-name="Layer 40"><path d="M727.72,627.82l39.76-52.49s-307.34-294.5-646.46.06l38.35,52.47S424.7,366.71,727.72,627.82Z" transform="translate(0 -3.06)"/><path d="M643,743.92l38.77-50.58s-213.35-222.29-473.77,0L243.74,744S430.34,564.55,643,743.92Z" transform="translate(0 -3.06)"/><path d="M555.19,860.81l40.26-53s-141.89-133.1-301.64,0l36.43,53S444,761.35,555.19,860.81Z" transform="translate(0 -3.06)"/><path d="M444.85,902.33s57.95-5,59.23,72.27c0,0,1.71,54.39-59.22,63.7,0,0-53.89,3.51-62.85-68C382,970.28,384.35,900.9,444.85,902.33Z" transform="translate(0 -3.06)"/><path d="M370.74,1201v-70.61l-183.2,0L167.1,1322.19s173-16.24,134.64,87.77c0,0-17.89,70.61-141.45,19.1L147.52,1493s115,62,198.53-19.1c0,0,68.17-55.57,24.7-150.88,0,0-22.16-73.35-133.78-60.94l5.11-61.07Z" transform="translate(0 -3.06)"/><path d="M712.43,1199.05l17-68.7s-202.58-79.18-284.91,103.08c0,0-61,203.74,101.74,268.84,0,0,114.18,24.07,194.28-12.19l0-207.06-127.81,1.92-.85,66.79,53.68,1.91-.84,85.87S496,1477.69,516.46,1281.13C516.46,1281.13,545.42,1133.23,712.43,1199.05Z" transform="translate(0 -3.06)"/></g><polyline points="892.8 1976.61 919.52 1967.97 969.92 1987.9 910.5 1993.89"/></g></svg>