<svg xmlns="http://www.w3.org/2000/svg" viewBox="0 0 2076.48 1454.4"><defs><style>.cls-1{fill:none;}.cls-2{font-size:182.99px;font-family:MyriadPro-Regular, Myriad Pro;}.cls-3{letter-spacing:-0.05em;}</style></defs><g id="_2" data-name="2"><polygon points="0 185.76 45.6 1418.4 203.04 1418.4 203.04 1224 164.16 1224 162.72 1378.08 101.52 1376.64 56.16 241.92 43.2 240.96 42.72 224.64 74.88 185.76 118.8 156 129.6 169.92 206.64 109.44 194.4 95.76 224.64 73.44 236.16 87.84 282.24 54.24 272.16 37.44 2006.64 54.24 1891.44 211.68 1918.56 234.72 2066.4 37.44 2066.4 13.68 257.04 0 12.24 184.32 0 185.76"/><polygon points="42.72 224.64 34.56 194.4 74.88 185.76 1891.44 211.68 1918.56 234.72 1937.52 1454.4 1773.36 1454.4 1813.68 1418.4 1897.2 1418.4 1897.92 1390.56 1885.68 1370.16 1864.08 268.8 1881.36 268.8 1879.2 246.96 42.72 224.64"/><polygon points="164.16 1224 518.4 1232.64 518.4 1414.08 479.52 1414.08 479.52 1267.2 203.04 1264.32 203.04 1418.4 143.04 1418.4 162.72 1378.08 164.16 1224"/><polyline points="187.68 1337.28 491.25 1343.04 491.25 1367.04 187.68 1359.36"/><path d="M485.6,1664.48s-12-6.24-21.36,4.32c0,0-7.68,13.68,3.6,22.08,0,0,10.56,8.64,22.32-2.88,0,0,8.16-12.72-3.12-22.32l16.32-11.76a33.85,33.85,0,0,1,7.44,36.48s-8.88,30.24-44.88,22.08c0,0-27.6-9.12-23.76-39.12,0,0,5-26.64,29.52-30.24,0,0,18.24-2.88,30,9.36l5.28,11.76-7.92,6" transform="translate(-121.76 -375.2)"/><path d="M381.84,1664.48s-12-6.24-21.36,4.32c0,0-7.68,13.68,3.6,22.08,0,0,10.56,8.64,22.32-2.88,0,0,8.16-12.72-3.12-22.32l16.32-11.76A33.85,33.85,0,0,1,407,1690.4s-8.88,30.24-44.88,22.08c0,0-27.6-9.12-23.76-39.12,0,0,5-26.64,29.52-30.24,0,0,18.24-2.88,30,9.36l5.28,11.76-7.92,6" transform="translate(-121.76 -375.2)"/><path d="M583.44,1664.53s-12-6.24-21.36,4.32c0,0-7.68,13.68,3.6,22.08,0,0,10.56,8.64,22.32-2.88,0,0,8.16-12.72-3.12-22.32L601.2,1654a33.85,33.85,0,0,1,7.44,36.48s-8.88,30.24-44.88,22.08c0,0-27.6-9.12-23.76-39.12,0,0,5-26.64,29.52-30.24,0,0,18.24-2.88,30,9.36l5.28,11.76-7.92,6" transform="translate(-121.76 -375.2)"/><path d="M1572.72,1690.93s-12-6.24-21.36,4.32c0,0-7.68,13.68,3.6,22.08,0,0,10.56,8.64,22.32-2.88,0,0,8.16-12.72-3.12-22.32l16.32-11.76a33.85,33.85,0,0,1,7.44,36.48s-8.88,30.24-44.88,22.08c0,0-27.6-9.12-23.76-39.12,0,0,5-26.64,29.52-30.24,0,0,18.24-2.88,30,9.36l5.28,11.76-7.92,6" transform="translate(-121.76 -375.2)"/><path d="M1678.05,1692.13s-12-6.24-21.36,4.32c0,0-7.68,13.68,3.6,22.08,0,0,10.56,8.64,22.32-2.88,0,0,8.16-12.72-3.12-22.32l16.32-11.76a33.85,33.85,0,0,1,7.44,36.48s-8.88,30.24-44.88,22.08c0,0-27.6-9.12-23.76-39.12,0,0,5-26.64,29.52-30.24,0,0,18.24-2.88,30,9.36l5.28,11.76-7.92,6" transform="translate(-121.76 -375.2)"/><path d="M1787,1692.13s-12-6.24-21.36,4.32c0,0-7.68,13.68,3.6,22.08,0,0,10.56,8.64,22.32-2.88,0,0,8.16-12.72-3.12-22.32l16.32-11.76a33.85,33.85,0,0,1,7.44,36.48s-8.88,30.24-44.88,22.08c0,0-27.6-9.12-23.76-39.12,0,0,5-26.64,29.52-30.24,0,0,18.24-2.88,30,9.36l5.28,11.76-7.92,6" transform="translate(-121.76 -375.2)"/><path d="M1881.12,1692.13s-12-6.24-21.36,4.32c0,0-7.68,13.68,3.6,22.08,0,0,10.56,8.64,22.32-2.88,0,0,8.16-12.72-3.12-22.32l16.32-11.76a33.85,33.85,0,0,1,7.44,36.48s-8.88,30.24-44.88,22.08c0,0-27.6-9.12-23.76-39.12,0,0,5-26.64,29.52-30.24,0,0,18.24-2.88,30,9.36l5.28,11.76-7.92,6" transform="translate(-121.76 -375.2)"/><polyline points="1440.48 1192.8 1430.64 1192.8 1430.64 1203.12 1411.68 1203.12 1411.68 1213.2 1430.16 1213.2 1430.88 1223.52 1440.48 1223.52 1440.48 1212.48 1453.92 1212.72 1453.92 1202.4 1440.24 1203.12"/><polyline points="1541.04 1195.68 1531.2 1195.68 1531.2 1206 1512.24 1206 1512.24 1216.08 1530.72 1216.08 1531.44 1226.4 1541.04 1226.4 1541.04 1215.36 1554.48 1215.6 1554.48 1205.28 1540.8 1206"/><polygon points="1652.66 1205.04 1652.66 1215.12 1617.12 1215.12 1617.12 1205.76 1652.66 1205.04"/><polygon points="1714.08 1205.04 1714.08 1215.12 1751.28 1216.08 1751.28 1205.04 1714.08 1205.04"/><path d="M1032.37,1667.54s-17.19-9.21-30.6,6.37c0,0-11,20.18,5.16,32.57,0,0,15.12,12.75,32-4.25,0,0,11.69-18.76-4.47-32.92l23.38-17.35s22.69,21.24,10.65,53.81c0,0-12.72,44.61-64.28,32.58,0,0-39.54-13.46-34-57.71,0,0,7.22-39.3,42.29-44.61,0,0,26.13-4.25,43,13.81l7.56,17.34-11.34,8.85" transform="translate(-121.76 -375.2)"/><path d="M1156.71,1662.19s-13.66-7.3-24.31,5c0,0-8.74,16,4.1,25.8,0,0,12,10.1,25.4-3.36,0,0,9.29-14.87-3.55-26.09l18.57-13.75a40.26,40.26,0,0,1,8.47,42.64s-10.11,35.35-51.08,25.81c0,0-31.41-10.66-27-45.72,0,0,5.74-31.14,33.6-35.35,0,0,20.76-3.36,34.14,10.94l6,13.75-9,7" transform="translate(-121.76 -375.2)"/><polyline points="1827.84 1414.08 1773.36 1454.4 1773.36 1390.56 1385.28 1390.56 1385.28 1435.68 1344.96 1435.68 1344.96 1251.36 1344.96 1248.18 1344.96 1247.04 1385.28 1288.32 1385.28 1371.84 1778.88 1369.92 1778.88 1295.27 1370.4 1295.27 1348.8 1257.6 1345.32 1248 1813.68 1260 1814.4 1442.16"/><polygon points="479.52 1414.08 518.4 1373.76 1344.96 1397.76 1344.96 1248.18 1389.12 1277.28 1385.28 1435.68 479.52 1414.08"/><polyline points="1778.88 1369.92 1906.56 1369.92 1913.52 1390.56 1793.76 1390.56"/><polyline points="2076.48 1186.56 1937.52 1454.4 1936.03 1358.4 2038.08 1177.92 2026.56 72.96 2066.4 19.68"/><path d="M2048.48,1413.92c4.31-1.94,57.12-72,57.12-72l10.08,328.55-10.08,14.65L2089.76,1387l-41.28,47" transform="translate(-121.76 -375.2)"/><path d="M2096.13,1653.49s-9.47-5.69-16.85,3.94c0,0-6.07,12.47,2.84,20.12,0,0,8.33,7.88,17.61-2.62,0,0,6.44-11.6-2.46-20.35l12.88-10.71s12.5,13.12,5.87,33.25c0,0-7,27.56-35.42,20.12,0,0-21.78-8.31-18.75-35.66,0,0,4-24.28,23.3-27.56,0,0,14.39-2.62,23.67,8.53l4.17,10.72-6.25,5.47" transform="translate(-121.76 -375.2)"/><path d="M2093.2,609.46s-9.39-5.72-16.72,3.95c0,0-6,12.53,2.82,20.23,0,0,8.27,7.91,17.47-2.64,0,0,6.39-11.65-2.44-20.45l12.78-10.77s12.4,13.19,5.82,33.42c0,0-6.95,27.69-35.14,20.22,0,0-21.61-8.35-18.6-35.83,0,0,3.95-24.4,23.11-27.7,0,0,14.29-2.64,23.49,8.57l4.14,10.78-6.2,5.49" transform="translate(-121.76 -375.2)"/><path d="M2117.11,555.46s-6.41-4.2-11.41,2.91c0,0-4.1,9.21,1.93,14.86,0,0,5.64,5.82,11.92-1.93,0,0,4.36-8.57-1.67-15l8.72-7.92s8.46,9.7,4,24.56c0,0-4.74,20.36-24,14.87,0,0-14.74-6.14-12.69-26.34,0,0,2.69-17.94,15.77-20.36,0,0,9.74-1.94,16,6.3l2.82,7.92-4.23,4" transform="translate(-121.76 -375.2)"/><path d="M1986.29,667.05c-.07-3.78,16.83-23,16.83-23L143.36,616.16v19.2L2007.2,663.2" transform="translate(-121.76 -375.2)"/><polygon points="1136.16 532.8 1136.16 723.36 1834.56 721.92 1823.52 703.2 1147.68 705.6 1149.6 543.36 1685.28 542.88 1685.76 552.48 1834.56 551.52 1834.56 534.72 1136.16 532.8"/><path d="M1381.76,913.28s.48,169.92,0,171.12,10.56-1.2,10.56-1.2V908.37" transform="translate(-121.76 -375.2)"/><polyline points="1410.72 538.56 1410.72 709.54 1422.72 708.96 1422.72 538.08"/><polyline points="1555.68 537.12 1555.68 709.54 1566.24 709.54 1566.24 538.08"/><polyline points="1684.8 537.6 1684.8 709.54 1694.88 707.52 1694.88 540.48"/><path d="M1266.08,1024.64c-1-.48,685-1,685-1v11.52s-687.36.48-687.84,0" transform="translate(-121.76 -375.2)"/><polygon points="1149.12 754.08 1149.12 817.44 1844.64 816.48 1844.64 754.08 1834.56 766.08 1834.56 808.32 1158.24 806.4 1159.2 762.72 1839.36 765.6 1842.96 758.88 1843.2 754.08 1149.12 754.08"/><polygon points="1834.56 534.72 1822.08 548.16 1822.08 713.28 1832.06 717.68 1834.56 534.72"/><path d="M865.28,880.64H729V1051H876.8l-2.23-2.1c-8.84-8.37-41-38.9-41.45-40.14-.48-1.44-63.36,1.44-63.36,1.44l-.48-91.2,57.6.48L835,1021.76s30.24,25,32.64,25.92" transform="translate(-121.76 -375.2)"/><path d="M862.4,890.24c-.48,2.4,14.4,160.8,14.4,160.8l-27.84-7.2" transform="translate(-121.76 -375.2)"/><path class="cls-1" d="M647.36,1213l-4.32-8.4s-46.32,27.84-32.64,55.44c0,0,12.48,19,32.16,25.68l4.8-8.16s-39.55-16.08-26.88-41C620.48,1236.56,633,1220.24,647.36,1213Z" transform="translate(-121.76 -375.2)"/><polygon points="523.68 864.72 523.68 875.04 491.62 873.84 493.69 862.8 523.68 864.72"/><path d="M579.92,1212.8l-5.28-8.16s-32.88,19.2-34.32,43c0,0-3.6,22.32,34.08,38.16l5.52-8.64s-40.78-12.45-25.92-40.56C554,1236.56,565.28,1220.72,579.92,1212.8Z" transform="translate(-121.76 -375.2)"/><polyline points="1968.48 66.24 1949.28 58.32 1894.56 120.96 1923.12 125.28 1968.48 69.84"/><polyline points="1892.88 145.92 1873.68 138 1818.96 200.64 1847.52 204.96 1892.88 149.52"/><polyline points="1908.96 62.28 1889.76 54.36 1835.04 117 1863.6 121.32 1908.96 65.88"/><polyline points="1837.92 145.92 1818.72 138 1764 200.64 1792.56 204.96 1837.92 149.52"/><polyline points="1828.08 64.18 1808.88 56.26 1754.16 118.9 1782.72 123.22 1828.08 67.78"/><polyline points="1763.52 140.12 1744.32 132.2 1689.6 194.84 1718.16 199.16 1763.52 143.72"/><polyline points="1763.52 60.36 1744.32 52.44 1689.6 115.08 1718.16 119.4 1763.52 63.96"/><polyline points="1704.48 143.4 1685.28 135.48 1630.56 198.12 1659.12 202.44 1704.48 147"/><polyline points="1684.32 65.7 1665.12 57.78 1610.4 120.42 1638.96 124.74 1684.32 69.3"/><polyline points="1608.72 145.38 1589.52 137.46 1534.8 200.1 1563.36 204.42 1608.72 148.98"/><polyline points="1624.8 61.74 1605.6 53.82 1550.88 116.46 1579.44 120.78 1624.8 65.34"/><polyline points="1553.76 145.38 1534.56 137.46 1479.84 200.1 1508.4 204.42 1553.76 148.98"/><polyline points="1538.88 57.9 1519.68 49.98 1464.96 112.62 1493.52 116.94 1538.88 61.5"/><polyline points="1463.28 137.58 1444.08 129.66 1389.36 192.3 1417.92 196.62 1463.28 141.18"/><polyline points="1479.36 53.94 1460.16 46.02 1405.44 108.66 1434 112.98 1479.36 57.54"/><polyline points="1408.32 137.58 1389.12 129.66 1334.4 192.3 1362.96 196.62 1408.32 141.18"/><polyline points="1387.68 57.9 1368.48 49.98 1313.76 112.62 1342.32 116.94 1387.68 61.5"/><polyline points="1312.08 137.58 1292.88 129.66 1238.16 192.3 1266.72 196.62 1312.08 141.18"/><polyline points="1328.16 53.94 1308.96 46.02 1254.24 108.66 1282.8 112.98 1328.16 57.54"/><polyline points="1257.12 137.58 1237.92 129.66 1183.2 192.3 1211.76 196.62 1257.12 141.18"/><polyline points="1264.8 54.18 1245.6 46.26 1190.88 108.9 1219.44 113.22 1264.8 57.78"/><polyline points="1189.2 133.86 1170 125.94 1115.28 188.58 1143.84 192.9 1189.2 137.46"/><polyline points="1205.28 50.22 1186.08 42.3 1131.36 104.94 1159.92 109.26 1205.28 53.82"/><polyline points="1134.24 133.86 1115.04 125.94 1060.32 188.58 1088.88 192.9 1134.24 137.46"/><polyline points="1135.44 56.46 1116.24 48.54 1061.52 111.18 1090.08 115.5 1135.44 60.06"/><polyline points="1059.84 136.14 1040.64 128.22 985.92 190.86 1014.48 195.18 1059.84 139.74"/><polyline points="1075.92 52.5 1056.72 44.58 1002 107.22 1030.56 111.54 1075.92 56.1"/><polyline points="1004.88 136.14 985.68 128.22 930.96 190.86 959.52 195.18 1004.88 139.74"/><polyline points="1007.52 54.18 988.32 46.26 933.6 108.9 962.16 113.22 1007.52 57.78"/><polyline points="931.92 133.86 912.72 125.94 858 188.58 886.56 192.9 931.92 137.46"/><polyline points="948 50.22 928.8 42.3 874.08 104.94 902.64 109.26 948 53.82"/><polyline points="876.96 133.86 857.76 125.94 803.04 188.58 831.6 192.9 876.96 137.46"/><polyline points="887.52 52.08 868.32 44.16 813.6 106.8 842.16 111.12 887.52 55.68"/><polyline points="811.92 131.76 792.72 123.84 738 186.48 766.56 190.8 811.92 135.36"/><polyline points="828 48.12 808.8 40.2 754.08 102.84 782.64 107.16 828 51.72"/><polyline points="756.96 131.76 737.76 123.84 683.04 186.48 711.6 190.8 756.96 135.36"/><polyline points="779.52 54.18 760.32 46.26 705.6 108.9 734.16 113.22 779.52 57.78"/><polyline points="703.92 133.86 684.72 125.94 630 188.58 658.56 192.9 703.92 137.46"/><polyline points="720 50.22 700.8 42.3 646.08 104.94 674.64 109.26 720 53.82"/><polyline points="648.96 133.86 629.76 125.94 575.04 188.58 603.6 192.9 648.96 137.46"/><polyline points="659.04 45.84 639.84 37.92 585.12 100.56 613.68 104.88 659.04 49.44"/><polyline points="583.44 125.52 564.24 117.6 509.52 180.24 538.08 184.56 583.44 129.12"/><polyline points="599.52 41.88 580.32 33.96 525.6 96.6 554.16 100.92 599.52 45.48"/><polyline points="528.48 125.52 509.28 117.6 454.56 180.24 483.12 184.56 528.48 129.12"/><polyline points="530.88 47.52 511.68 39.6 456.96 102.24 485.52 106.56 530.88 51.12"/><polyline points="455.28 127.2 436.08 119.28 381.36 181.92 409.92 186.24 455.28 130.8"/><polyline points="471.36 43.56 452.16 35.64 397.44 98.28 426 102.6 471.36 47.16"/><polyline points="400.32 127.2 381.12 119.28 326.4 181.92 354.96 186.24 400.32 130.8"/><polyline points="405.12 47.52 385.92 39.6 331.2 102.24 359.76 106.56 405.12 51.12"/><polyline points="329.52 127.2 310.32 119.28 255.6 181.92 284.16 186.24 329.52 130.8"/><polyline points="345.6 43.56 326.4 35.64 271.68 98.28 300.24 102.6 345.6 47.16"/><polyline points="274.56 127.2 255.36 119.28 200.64 181.92 229.2 186.24 274.56 130.8"/><polyline points="288.72 51.48 269.52 43.56 214.8 106.2 243.36 110.52 288.72 55.08"/><polyline points="213.12 131.16 193.92 123.24 139.2 185.88 167.76 190.2 213.12 134.76"/><polyline points="229.2 47.52 210 39.6 155.28 102.24 183.84 106.56 229.2 51.12"/><polyline points="158.16 131.16 138.96 123.24 84.24 185.88 112.8 190.2 158.16 134.76"/><path d="M647.36,1213l-4.32-8.4s-78.08,43.2-.48,81.12l4.8-8.16S587.36,1250.56,647.36,1213Z" transform="translate(-121.76 -375.2)"/></g><g id="WM"><text class="cls-2" transform="translate(803.04 1096.49)"><tspan class="cls-3">Y</tspan><tspan x="89.3" y="0">uyu</tspan></text></g></svg>