<svg xmlns="http://www.w3.org/2000/svg" viewBox="0 0 1410.57 2064.69"><defs><style>.cls-1{font-size:182.99px;font-family:MyriadPro-Regular, Myriad Pro;}.cls-2{letter-spacing:-0.05em;}</style></defs><g id="_3" data-name="3"><polygon points="117.45 11.52 160.65 43.2 1265.13 48.96 1250.73 2041.18 1285.29 2041.18 1285.29 2016 1302.57 2024.64 1410.57 1582.56 1370.25 1576.8 1354.84 1643.5 1316.03 1811.53 1319.78 244.8 1338.57 315.36 1329.45 1782.72 1359.1 1670.4 1359.1 408.96 1370.25 462.72 1370.25 1609.92 1404.33 1587.84 1410.57 436.68 1302.57 11.52 117.45 11.52"/><polyline points="117.45 2041.18 1285.29 2041.18 1276.65 1998.72 1233.45 1998.72 1239.21 28.8 1187.37 34.56 1196.01 2010.24 219.69 2007.36 219.69 31.68 176.49 34.56 179.37 2004.48 150.57 2007.36 160.65 43.2 117.45 144 117.45 1915.2"/><path d="M473.12,513.44l8.64,1119.36,21.12,46.32V464.48l34.56-164.16-9.6,1511,36,132.48,21.6-10.2-21.6,137.88s-113.76-417.6-116.64-426.24S450.08,509.6,450.08,509.6L563.84,58.4,450.08,509.6l22.92,49,133.85-431S585.44,58.4,585.44,46.88" transform="translate(-446.39 -46.88)"/><g id="Layer_23" data-name="Layer 23"><polyline points="146.42 32.76 117.45 11.52 0 470.4 16.17 522.24 27.23 531.78 176.49 34.56"/></g><path d="M1293.46,734.86s-9-4.82-16.07,3.34c0,0-5.78,10.57,2.7,17.06,0,0,8,6.67,16.8-2.23,0,0,6.14-9.82-2.35-17.24l12.28-9.09a26.61,26.61,0,0,1,5.6,28.19s-6.68,23.36-33.77,17.06c0,0-20.77-7.05-17.88-30.23,0,0,3.8-20.58,22.21-23.36,0,0,13.73-2.23,22.57,7.23l4,9.09-6,4.63" transform="translate(-446.39 -46.88)"/><path d="M1281.89,669.82s-9.78-5.06-17.41,3.5c0,0-6.26,11.08,2.94,17.89,0,0,8.6,7,18.19-2.34,0,0,6.65-10.3-2.55-18.08l13.3-9.53a27.34,27.34,0,0,1,6.07,29.56s-7.24,24.5-36.58,17.89c0,0-22.49-7.39-19.36-31.7,0,0,4.1-21.58,24.06-24.49,0,0,14.86-2.34,24.45,7.58l4.3,9.53-6.46,4.86" transform="translate(-446.39 -46.88)"/><path d="M1281.38,593.29s-9-4.67-16.07,3.24c0,0-5.77,10.24,2.71,16.53,0,0,8,6.47,16.8-2.15,0,0,6.13-9.53-2.35-16.72l12.28-8.81a25.28,25.28,0,0,1,5.59,27.32s-6.68,22.65-33.76,16.54c0,0-20.77-6.83-17.88-29.3,0,0,3.79-20,22.21-22.65,0,0,13.72-2.15,22.57,7l4,8.81-6,4.5" transform="translate(-446.39 -46.88)"/><path d="M1287.83,523.88s-8.78-4.59-15.64,3.18c0,0-5.62,10.06,2.64,16.23,0,0,7.73,6.36,16.34-2.11,0,0,6-9.36-2.28-16.42l11.95-8.65a25,25,0,0,1,5.44,26.83s-6.5,22.24-32.86,16.24c0,0-20.21-6.71-17.39-28.77,0,0,3.69-19.59,21.61-22.24,0,0,13.36-2.12,22,6.88l3.86,8.65-5.8,4.41" transform="translate(-446.39 -46.88)"/><path d="M1288.89,449.37s-10.36-5.27-18.43,3.65c0,0-6.63,11.55,3.1,18.65,0,0,9.12,7.29,19.26-2.44,0,0,7-10.74-2.69-18.85l14.08-9.93s13.67,12.16,6.42,30.81c0,0-7.66,25.54-38.72,18.65,0,0-23.82-7.7-20.51-33,0,0,4.35-22.5,25.48-25.54,0,0,15.74-2.43,25.88,7.91l4.56,9.93-6.83,5.06" transform="translate(-446.39 -46.88)"/><path d="M1370.82,724.18s-9-4.65-16.06,3.22c0,0-5.78,10.2,2.71,16.46,0,0,7.94,6.44,16.78-2.14,0,0,6.13-9.49-2.35-16.64l12.27-8.77a25.11,25.11,0,0,1,5.6,27.2S1383.09,766.05,1356,760c0,0-20.75-6.79-17.86-29.16,0,0,3.79-19.86,22.19-22.54,0,0,13.72-2.15,22.56,7l4,8.76-6,4.48" transform="translate(-446.39 -46.88)"/><path d="M1359.26,661.43s-9.77-4.88-17.4,3.37c0,0-6.25,10.7,2.94,17.26,0,0,8.6,6.76,18.17-2.25,0,0,6.65-9.94-2.54-17.44l13.29-9.2s12.91,11.26,6.06,28.52c0,0-7.23,23.63-36.55,17.26,0,0-22.48-7.13-19.35-30.58,0,0,4.11-20.82,24-23.64,0,0,14.86-2.25,24.44,7.32l4.3,9.19-6.45,4.69" transform="translate(-446.39 -46.88)"/><path d="M1358.75,587.59s-9-4.51-16.06,3.12c0,0-5.77,9.89,2.71,16,0,0,7.94,6.24,16.78-2.08,0,0,6.14-9.2-2.34-16.13l12.27-8.5s11.91,10.4,5.59,26.36c0,0-6.67,21.85-33.74,16,0,0-20.75-6.6-17.87-28.27,0,0,3.79-19.25,22.2-21.86,0,0,13.71-2.08,22.55,6.77l4,8.5-6,4.33" transform="translate(-446.39 -46.88)"/><path d="M1365.2,520.62s-8.78-4.43-15.63,3.06c0,0-5.62,9.71,2.63,15.67,0,0,7.73,6.13,16.34-2,0,0,6-9-2.29-15.84l11.94-8.35a23.57,23.57,0,0,1,5.45,25.89s-6.5,21.46-32.84,15.67c0,0-20.2-6.47-17.39-27.76,0,0,3.69-18.91,21.6-21.46,0,0,13.35-2,22,6.64l3.87,8.35-5.8,4.25" transform="translate(-446.39 -46.88)"/><path d="M1366.25,448.73s-10.34-5.09-18.42,3.52c0,0-6.62,11.14,3.11,18,0,0,9.1,7,19.25-2.35,0,0,7-10.36-2.69-18.19l14.07-9.58s13.66,11.74,6.41,29.73c0,0-7.65,24.64-38.7,18,0,0-23.8-7.43-20.49-31.88,0,0,4.35-21.7,25.46-24.64,0,0,15.73-2.35,25.87,7.63l4.55,9.58-6.83,4.89" transform="translate(-446.39 -46.88)"/><path d="M1379.55,672.27c2.17,1.07,23.81,0,23.81,0l-1.92,8.79h-25.26l.3-8.79" transform="translate(-446.39 -46.88)"/><polyline points="955.05 550.73 955.05 560.64 930.09 562.29 933.14 550.73"/><path d="M1381.78,524c2.64-.71,21.58,0,21.58,0v10.08h-23" transform="translate(-446.39 -46.88)"/><polyline points="939.04 411.36 956.97 411.36 956.97 420.48 939.04 420.48"/><polyline points="939.69 690.24 956.97 690.24 956.97 698.7 939.69 698.7"/><polyline points="800.01 1171.2 798.09 932.64 980.49 931.68 981.45 1166.4 799.05 1166.4 991.05 1176 991.05 922.08 788.01 922.08 788.01 1176 800.49 1176 799.05 926.4"/><path d="M1276.16,993.92v33.6h-13.44v123.84l19.68-3.36v39.84h135.36V993.92l-9.6,11V1179.2l-116.16-.48v-44.64l-19.2,4.8.48-103.68,11.52,1,2.88-31.68L1413,1005l4.2-8.88s.39-1.35.39-1.44S1276.16,993.92,1276.16,993.92Z" transform="translate(-446.39 -46.88)"/><polyline points="985.77 1164.96 791.85 1164.96 788.01 1176 991.05 1176"/><polygon points="703.53 414.2 703.05 650.88 344.49 648.96 344.49 413.04 344.49 412.32 354.57 421.2 353.61 637.92 413.61 637.44 413.61 640.08 692.37 640.32 692.49 421.2 349.29 421.2 344.6 412.59 703.53 414.2"/><polygon points="554.01 615.12 679.53 615.12 679.53 457.44 554.01 457.44 563.85 467.52 668.97 468.24 669.45 606 564.33 605.52 564.57 462.72 554.69 457.64 554.01 615.12"/><polygon points="540.81 482.08 540.65 578.4 571.05 578.4 571.69 482.08 571.54 482.21 566.25 487.04 566.41 573.76 545.45 573.28 545.45 486.72 568.89 487.04 571.57 482.4 540.81 482.08"/><polygon points="596.49 427.44 577.93 427.44 577.93 446 596.49 446 596.4 445.91 591.61 440.8 582.97 440.88 582.89 432.56 591.53 432.24 591.69 442 596.32 445.94 596.49 427.44"/><polygon points="596.53 618.92 577.97 618.92 577.97 637.48 596.53 637.48 596.45 637.39 591.65 632.28 583.01 632.36 582.93 624.04 591.57 623.72 591.73 633.48 596.36 637.42 596.53 618.92"/><polygon points="487.89 423.52 463.25 423.52 463.25 449.92 487.89 449.92 487.78 449.8 481.41 442.52 469.94 442.64 469.83 430.8 481.3 430.35 481.51 444.23 487.66 449.83 487.89 423.52"/><polygon points="479.89 618.92 461.33 618.92 461.33 637.48 479.89 637.48 479.81 637.39 475.01 632.28 466.37 632.36 466.29 624.04 474.93 623.72 475.09 633.48 479.72 637.42 479.89 618.92"/><path d="M814.64,505.28h117.6V529h25.2v100.4H931.76l4.8-5h16.8c-.72,0-.48-90.24-.48-90.24l-16.32-.24L937,627.2,931.28,631l.48,31L800.1,663v-5.52h14.54l9.36-5.28,98.4.48L922,514.16l-97.24.24Z" transform="translate(-446.39 -46.88)"/><path d="M983.36,466.64V689.36s-3.84.72-4.56,0,0-222.72,0-222.72" transform="translate(-446.39 -46.88)"/><polyline points="529.53 421.2 529.53 641.76 524.01 642.8 525.21 417.12 529.53 417.6"/><polyline points="378.33 467.52 368.25 458.4 368.49 615.97 378.33 612.24 378.33 462.72"/><polyline points="413.29 613.44 413.29 645.12 408.81 640.96 408.81 610.56"/><polyline points="344.49 524.64 302.97 524.64 302.97 621.36 308.01 621.36 308.01 529.92 345.93 529.92"/><polyline points="701.37 524.48 753.77 524.48 753.77 621.36 749.61 621.36 749.29 530.19 696.17 530.19"/><polyline points="352.65 423.52 394.73 423.52 394.73 455.36 350.41 455.36 352.65 450.88 388.97 451.36 389.29 428.8 352.49 429.11 351.53 423.52 394.73 423.52 394.73 455.36 349.29 455.36 351.85 449.92 389.61 449.92 389.29 428.8 351.21 429.12 349.29 421.2"/><polygon points="345.32 950.17 345.83 680.38 721.28 682.57 721.28 951.5 721.28 952.32 710.73 942.2 711.73 695.15 648.9 695.7 648.9 692.69 357.01 692.42 356.88 942.2 716.25 942.2 721.16 952.01 345.32 950.17"/><polygon points="501.89 721.14 370.45 721.14 370.45 900.89 501.89 900.89 491.58 889.4 381.51 888.58 381.01 731.54 491.08 732.09 490.83 894.87 501.18 900.66 501.89 721.14"/><polygon points="515.71 872.8 515.88 763 484.05 763 483.38 872.8 483.53 872.65 489.07 867.14 488.9 768.29 510.85 768.84 510.85 867.51 486.31 867.14 483.5 872.43 515.71 872.8"/><polygon points="457.41 935.08 476.84 935.08 476.84 913.93 457.41 913.93 457.49 914.03 462.52 919.86 471.56 919.76 471.65 929.25 462.6 929.61 462.43 918.49 457.58 914 457.41 935.08"/><polygon points="457.37 716.81 476.8 716.81 476.8 695.65 457.37 695.65 457.45 695.75 462.48 701.58 471.52 701.49 471.61 710.98 462.56 711.34 462.39 700.22 457.54 695.72 457.37 716.81"/><polygon points="571.12 939.55 596.92 939.55 596.92 909.46 571.12 909.46 571.24 909.6 577.91 917.89 589.92 917.76 590.03 931.25 578.02 931.77 577.8 915.95 571.36 909.56 571.12 939.55"/><polygon points="579.5 716.81 598.93 716.81 598.93 695.65 579.5 695.65 579.59 695.75 584.61 701.58 593.66 701.49 593.74 710.98 584.69 711.34 584.53 700.22 579.68 695.72 579.5 716.81"/><path d="M1142.79,946.67H1019.65v-27H993.27V805.23h26.89l-5,5.75H997.54c.75,0,.5,102.86.5,102.86l17.09.28-.5-106.43,6-4.37-.5-35.3L1158,766.93v6.29h-15.23l-9.8,6-103-.55.46,157.86,101.82-.27Z" transform="translate(-446.39 -46.88)"/><path d="M966.12,990.72V736.84s4-.83,4.78,0,0,253.88,0,253.88" transform="translate(-446.39 -46.88)"/><polyline points="527.52 942.2 527.52 690.78 533.3 689.59 532.04 946.85 527.52 946.3"/><polyline points="685.85 889.4 696.4 899.79 696.14 720.17 685.85 724.43 685.85 894.87"/><polyline points="649.24 723.06 649.24 686.95 653.93 691.69 653.93 726.34"/><polyline points="721.28 824.28 764.76 824.28 764.76 714.03 759.48 714.03 759.48 818.26 719.77 818.26"/><polyline points="347.58 824.47 292.72 824.47 292.72 714.03 297.07 714.03 297.41 817.95 353.03 817.95"/><polyline points="712.74 939.55 668.67 939.55 668.67 903.26 715.08 903.26 712.74 908.37 674.7 907.82 674.37 933.53 712.9 933.18 713.91 939.55 668.67 939.55 668.67 903.26 716.25 903.26 713.57 909.46 674.03 909.46 674.37 933.53 714.24 933.17 716.25 942.2"/><polygon points="705.89 982.13 705.41 1200 346.85 1198.23 346.85 981.06 346.85 980.4 356.93 988.57 355.97 1188.07 415.97 1187.63 415.97 1190.06 694.73 1190.28 694.85 988.57 351.65 988.57 346.96 980.65 705.89 982.13"/><polygon points="556.37 1167.08 681.89 1167.08 681.89 1021.93 556.37 1021.93 566.21 1031.21 671.33 1031.88 671.81 1158.69 566.69 1158.24 566.93 1026.79 557.05 1022.12 556.37 1167.08"/><path d="M817,1069.7H934.6v21.8h25.2v92.42H934.12l4.8-4.64h16.8c-.72,0-.48-83.07-.48-83.07l-16.32-.22.48,85.94-5.76,3.53.48,28.5-131.66.89v-5.09H817l9.36-4.86,98.4.45-.44-127.48-97.24.22Z" transform="translate(-446.39 -46.88)"/><polyline points="380.69 1031.21 370.61 1022.82 370.85 1167.87 380.69 1164.43 380.69 1026.79"/><polyline points="415.65 1165.54 415.65 1194.7 411.17 1190.87 411.17 1162.88"/><polyline points="355.01 990.71 397.09 990.71 397.09 1020.02 352.77 1020.02 355.01 1015.89 391.33 1016.34 391.65 995.57 354.85 995.86 353.89 990.71 397.09 990.71 397.09 1020.02 351.65 1020.02 354.21 1015.01 391.97 1015.01 391.65 995.57 353.57 995.87 351.65 988.57"/><polygon points="705.89 1191.17 705.41 1409.04 346.85 1407.27 346.85 1190.1 346.85 1189.44 356.93 1197.61 355.97 1397.11 415.97 1396.67 415.97 1399.1 694.73 1399.32 694.85 1197.61 351.65 1197.61 346.96 1189.69 705.89 1191.17"/><polygon points="556.37 1376.12 681.89 1376.12 681.89 1230.97 556.37 1230.97 566.21 1240.25 671.33 1240.92 671.81 1367.73 566.69 1367.29 566.93 1235.83 557.05 1231.16 556.37 1376.12"/><path d="M817,1278.74H934.6v21.8h25.2V1393H934.12l4.8-4.64h16.8c-.72,0-.48-83.07-.48-83.07l-16.32-.22.48,85.94-5.76,3.53.48,28.5-131.66.89v-5.09H817l9.36-4.86,98.4.45-.44-127.48-97.24.22Z" transform="translate(-446.39 -46.88)"/><polyline points="380.69 1240.25 370.61 1231.86 370.85 1376.91 380.69 1373.47 380.69 1235.83"/><polyline points="415.65 1374.58 415.65 1403.74 411.17 1399.91 411.17 1371.92"/><polyline points="355.01 1199.75 397.09 1199.75 397.09 1229.06 352.77 1229.06 355.01 1224.93 391.33 1225.38 391.65 1204.61 354.85 1204.89 353.89 1199.75 397.09 1199.75 397.09 1229.06 351.65 1229.06 354.21 1224.05 391.97 1224.05 391.65 1204.61 353.57 1204.9 351.65 1197.61"/><polygon points="705.89 1405.47 705.41 1623.34 346.85 1621.57 346.85 1404.4 346.85 1403.74 356.93 1411.91 355.97 1611.41 415.97 1610.97 415.97 1613.4 694.73 1613.62 694.85 1411.91 351.65 1411.91 346.96 1403.99 705.89 1405.47"/><polygon points="556.37 1590.42 681.89 1590.42 681.89 1445.27 556.37 1445.27 566.21 1454.55 671.33 1455.21 671.81 1582.03 566.69 1581.58 566.93 1450.13 557.05 1445.46 556.37 1590.42"/><path d="M817,1493H934.6v21.79h25.2v92.42H934.12l4.8-4.64h16.8c-.72,0-.48-83.06-.48-83.06l-16.32-.22.48,85.94-5.76,3.53.48,28.5-131.66.88v-5.08H817l9.36-4.86,98.4.44-.44-127.47-97.24.22Z" transform="translate(-446.39 -46.88)"/><polyline points="380.69 1454.55 370.61 1446.15 370.85 1591.2 380.69 1587.77 380.69 1450.13"/><polyline points="415.65 1588.87 415.65 1618.04 411.17 1614.21 411.17 1586.22"/><polyline points="355.01 1414.05 397.09 1414.05 397.09 1443.36 352.77 1443.36 355.01 1439.23 391.33 1439.67 391.65 1418.91 354.85 1419.19 353.89 1414.05 397.09 1414.05 397.09 1443.36 351.65 1443.36 354.21 1438.35 391.97 1438.35 391.65 1418.91 353.57 1419.2 351.65 1411.91"/><polygon points="705.89 1619.77 705.41 1837.64 346.85 1835.87 346.85 1618.7 346.85 1618.04 356.93 1626.21 355.97 1825.71 415.97 1825.26 415.97 1827.69 694.73 1827.91 694.85 1626.21 351.65 1626.21 346.96 1618.28 705.89 1619.77"/><polygon points="556.37 1804.72 681.89 1804.72 681.89 1659.57 556.37 1659.57 566.21 1668.85 671.33 1669.51 671.81 1796.32 566.69 1795.88 566.93 1664.43 557.05 1659.75 556.37 1804.72"/><path d="M817,1707.33H934.6v21.8h25.2v92.42H934.12l4.8-4.64h16.8c-.72,0-.48-83.07-.48-83.07l-16.32-.22.48,85.94-5.76,3.54.48,28.5-131.66.88v-5.08H817l9.36-4.86,98.4.44-.44-127.47-97.24.22Z" transform="translate(-446.39 -46.88)"/><polyline points="380.69 1668.85 370.61 1660.45 370.85 1805.5 380.69 1802.07 380.69 1664.43"/><polyline points="415.65 1803.17 415.65 1832.33 411.17 1828.5 411.17 1800.52"/><polyline points="355.01 1628.35 397.09 1628.35 397.09 1657.65 352.77 1657.65 355.01 1653.53 391.33 1653.97 391.65 1633.21 354.85 1633.49 353.89 1628.35 397.09 1628.35 397.09 1657.65 351.65 1657.65 354.21 1652.65 391.97 1652.65 391.65 1633.21 353.57 1633.5 351.65 1626.21"/><path d="M1262.88,2088.06s-1.92,25.7,53.76,22.5c0,0,26.24,8,40.32-21.12l-10.56-1.38s2.56,18.66-46.08,14.18c0,0-26.88.44-29.12-14.18" transform="translate(-446.39 -46.88)"/></g><g id="WM"><text class="cls-1" transform="translate(753.77 1727.84)"><tspan class="cls-2">Y</tspan><tspan x="89.3" y="0">uyu</tspan></text></g></svg>