<svg xmlns="http://www.w3.org/2000/svg" viewBox="0 0 801.36 1961.68"><defs><style>.cls-1{font-size:182.99px;font-family:MyriadPro-Regular, Myriad Pro;}.cls-2{letter-spacing:-0.05em;}</style></defs><g id="_4" data-name="4"><polyline points="757.44 39.76 759.44 37.86 798.72 0.4 796.8 1961.68 0 1958.8 3.84 0.4 43.2 39.76 40.32 1920.4 758.4 1919.44 761.28 39.76 29.76 40.08 3.2 0 801.36 1.6 795.84 6.16"/><polyline points="722.64 31.6 724.08 1936.72 743.52 1936.72 743.52 20.12"/><polyline points="80.4 33.08 80.4 1931.68 60.24 1931.68 60.24 20.12"/><polygon points="176.16 254.32 334.08 254.32 333.12 498.16 176.16 498.16 195.84 478 314.4 477.52 313.92 274 195.84 275.44 196.16 479.04 176.16 498.88 176.16 254.32"/><path d="M933,402.08H901.52l.24,106.08H933V497.84H911.12v-85.2l21.84-.72" transform="translate(-753.44 -82.96)"/><polygon points="171.72 656.72 329.64 656.72 328.68 900.56 171.72 900.56 191.4 880.4 309.96 879.92 309.48 676.4 191.4 677.84 191.72 881.44 171.72 901.28 171.72 656.72"/><path d="M928.52,804.48H897.08l.24,106.08h31.2V900.24H906.68V815l21.84-.72" transform="translate(-753.44 -82.96)"/><polyline points="578.64 1028.08 576.96 1805.2 560.64 1784.08 560.64 1049.68 199.2 1048.72 199.2 1786.96 571.2 1783.12 578.64 1803.6 183.36 1805.2 184.8 1028.08"/><polygon points="549.12 1061.68 405.12 1061.68 405.12 1246.48 413.28 1236.4 414.24 1215.76 423.84 1205.24 424.32 1098.64 414.72 1096.72 414.24 1070.8 539.04 1073.2 538.56 1205.24 549.12 1199.44 549.12 1061.68"/><polyline points="417.95 1097.37 467.04 1097.37 467.04 1215.28 409.92 1217.2 423.84 1205.24 457.44 1205.24 457.92 1108.24 409.92 1108.24"/><polygon points="549.12 1061.68 539.04 1073.2 539.04 1209.04 539.04 1236.88 506.88 1236.88 495.36 1246.48 557.76 1246.48 557.76 1200.4 549.12 1199.44 549.12 1061.68"/><polyline points="543.84 1200.88 495.36 1200.88 495.36 1238.8 507.36 1240.24 506.4 1208.56 543.84 1211"/><polyline points="540.96 1235.92 409.44 1235.92 405.12 1246.48 557.76 1246.48 552 1227.76"/><polyline points="557.76 1237.12 557.76 1268.56 495.36 1268.56 495.36 1259.44 495.36 1252.84 549.12 1252.84"/><polyline points="505.92 1243.12 505.92 1257.08 497.76 1257.08 495.36 1238.8"/><polyline points="495.36 1068.88 495.36 1116.4 543.84 1116.4 539.04 1105.84 504 1105.84 505.92 1067.44"/><polygon points="209.76 1061.68 353.76 1061.68 353.76 1246.48 345.6 1236.4 344.64 1215.76 335.04 1205.24 334.56 1098.64 344.16 1096.72 344.64 1070.8 219.84 1073.2 220.32 1205.24 209.76 1199.44 209.76 1061.68"/><polyline points="340.93 1097.37 291.84 1097.37 291.84 1215.28 348.96 1217.2 335.04 1205.24 301.44 1205.24 300.96 1108.24 348.96 1108.24"/><polygon points="209.76 1061.68 219.84 1073.2 219.84 1209.04 219.84 1236.88 252 1236.88 263.52 1246.48 201.12 1246.48 201.12 1200.4 209.76 1199.44 209.76 1061.68"/><polyline points="215.04 1200.88 263.52 1200.88 263.52 1238.8 251.52 1240.24 252.48 1208.56 215.04 1211"/><polyline points="217.92 1235.92 349.44 1235.92 353.76 1246.48 201.12 1246.48 206.88 1227.76"/><polyline points="201.12 1237.12 201.12 1268.56 263.52 1268.56 263.52 1259.44 263.52 1252.84 209.76 1252.84"/><polyline points="252.96 1243.12 252.96 1257.08 261.12 1257.08 263.52 1238.8"/><polyline points="263.52 1068.88 263.52 1116.4 215.04 1116.4 219.84 1105.84 254.88 1105.84 252.96 1067.44"/><polyline points="563.52 1257.08 189.84 1257.08 193.44 1268.56 572.88 1268.56"/><polyline points="568.56 1288 193.44 1288 195.6 1298.08 572.88 1298.08"/><polygon points="546.72 1317.04 402.72 1317.04 402.72 1501.84 410.88 1491.76 411.84 1471.12 421.44 1460.6 421.92 1354 412.32 1352.08 411.84 1326.16 536.64 1328.56 536.16 1460.6 546.72 1454.8 546.72 1317.04"/><polyline points="415.55 1352.73 464.64 1352.73 464.64 1470.64 407.52 1472.56 421.44 1460.6 455.04 1460.6 455.52 1363.6 407.52 1363.6"/><polygon points="546.72 1317.04 536.64 1328.56 536.64 1464.4 536.64 1492.24 504.48 1492.24 492.96 1501.84 555.36 1501.84 555.36 1455.76 546.72 1454.8 546.72 1317.04"/><polyline points="541.44 1456.24 492.96 1456.24 492.96 1494.16 504.96 1495.6 504 1463.92 541.44 1466.36"/><polyline points="538.56 1491.28 407.04 1491.28 402.72 1501.84 555.36 1501.84 549.6 1483.12"/><polyline points="555.36 1492.48 555.36 1523.92 492.96 1523.92 492.96 1514.8 492.96 1508.2 546.72 1508.2"/><polyline points="503.52 1498.48 503.52 1512.44 495.36 1512.44 492.96 1494.16"/><polyline points="492.96 1324.24 492.96 1371.76 541.44 1371.76 536.64 1361.2 501.6 1361.2 503.52 1322.8"/><polygon points="207.36 1317.04 351.36 1317.04 351.36 1501.84 343.2 1491.76 342.24 1471.12 332.64 1460.6 332.16 1354 341.76 1352.08 342.24 1326.16 217.44 1328.56 217.92 1460.6 207.36 1454.8 207.36 1317.04"/><polyline points="338.53 1352.73 289.44 1352.73 289.44 1470.64 346.56 1472.56 332.64 1460.6 299.04 1460.6 298.56 1363.6 346.56 1363.6"/><polygon points="207.36 1317.04 217.44 1328.56 217.44 1464.4 217.44 1492.24 249.6 1492.24 261.12 1501.84 198.72 1501.84 198.72 1455.76 207.36 1454.8 207.36 1317.04"/><polyline points="212.64 1456.24 261.12 1456.24 261.12 1494.16 249.12 1495.6 250.08 1463.92 212.64 1466.36"/><polyline points="215.52 1491.28 347.04 1491.28 351.36 1501.84 198.72 1501.84 204.48 1483.12"/><polyline points="198.72 1492.48 198.72 1523.92 261.12 1523.92 261.12 1514.8 261.12 1508.2 207.36 1508.2"/><polyline points="250.56 1498.48 250.56 1512.44 258.72 1512.44 261.12 1494.16"/><polyline points="261.12 1324.24 261.12 1371.76 212.64 1371.76 217.44 1361.2 252.48 1361.2 250.56 1322.8"/><polyline points="561.12 1512.44 187.44 1512.44 191.04 1523.92 570.48 1523.92"/><polyline points="566.16 1543.36 191.04 1543.36 193.2 1553.44 570.48 1553.44"/><polygon points="549.84 1563.8 405.84 1563.8 405.84 1748.6 414 1738.52 414.96 1717.88 424.56 1707.36 425.04 1600.76 415.44 1598.84 414.96 1572.92 539.76 1575.32 539.28 1707.36 549.84 1701.56 549.84 1563.8"/><polyline points="418.67 1599.49 467.76 1599.49 467.76 1717.4 410.64 1719.32 424.56 1707.36 458.16 1707.36 458.64 1610.36 410.64 1610.36"/><polygon points="549.84 1563.8 539.76 1575.32 539.76 1711.16 539.76 1739 507.6 1739 496.08 1748.6 558.48 1748.6 558.48 1702.52 549.84 1701.56 549.84 1563.8"/><polyline points="544.56 1703 496.08 1703 496.08 1740.92 508.08 1742.36 507.12 1710.68 544.56 1713.12"/><polyline points="541.68 1738.04 410.16 1738.04 405.84 1748.6 558.48 1748.6 552.72 1729.88"/><polyline points="558.48 1739.24 558.48 1770.68 496.08 1770.68 496.08 1761.56 496.08 1754.96 549.84 1754.96"/><polyline points="506.64 1745.24 506.64 1759.2 498.48 1759.2 496.08 1740.92"/><polyline points="496.08 1571 496.08 1618.52 544.56 1618.52 539.76 1607.96 504.72 1607.96 506.64 1569.56"/><polygon points="210.48 1563.8 354.48 1563.8 354.48 1748.6 346.32 1738.52 345.36 1717.88 335.76 1707.36 335.28 1600.76 344.88 1598.84 345.36 1572.92 220.56 1575.32 221.04 1707.36 210.48 1701.56 210.48 1563.8"/><polyline points="341.65 1599.49 292.56 1599.49 292.56 1717.4 349.68 1719.32 335.76 1707.36 302.16 1707.36 301.68 1610.36 349.68 1610.36"/><polygon points="210.48 1563.8 220.56 1575.32 220.56 1711.16 220.56 1739 252.72 1739 264.24 1748.6 201.84 1748.6 201.84 1702.52 210.48 1701.56 210.48 1563.8"/><polyline points="215.76 1703 264.24 1703 264.24 1740.92 252.24 1742.36 253.2 1710.68 215.76 1713.12"/><polyline points="218.64 1738.04 350.16 1738.04 354.48 1748.6 201.84 1748.6 207.6 1729.88"/><polyline points="201.84 1739.24 201.84 1770.68 264.24 1770.68 264.24 1761.56 264.24 1754.96 210.48 1754.96"/><polyline points="253.68 1745.24 253.68 1759.2 261.84 1759.2 264.24 1740.92"/><polyline points="264.24 1571 264.24 1618.52 215.76 1618.52 220.56 1607.96 255.6 1607.96 253.68 1569.56"/><polyline points="564.24 1759.2 190.56 1759.2 194.16 1770.68 573.6 1770.68"/><polyline points="569.28 1790.12 194.16 1790.12 196.32 1800.2 573.6 1800.2"/><path d="M1418,829.28c-.72.72-9.84,10.08-9.84,10.08l-186.72-1.2L1221,1059h187.92l-.42-220.5,8.1-8.76,2,.06v238.88H1211.68s.64-238.72.16-239.2,209-.16,209-.16" transform="translate(-753.44 -82.96)"/><polyline points="623.2 772.72 496.8 772.72 496.8 814.8 534.08 814.32 534.08 922.48 496.8 922.8 496.8 962.32 621.44 962.32 621.44 922.64 612 922 611.68 952.08 506.72 952.08 506.72 932.4 544 932.4 544.16 804.88 506.72 804.24 506.72 782.64 611.68 782.32 621.44 772.72 621.36 963.76 610.8 954.16 612.24 776.32"/><path d="M1374.88,859l-1.28-3.36s-13.92,1.44-13.44,1.68,3.68,6,3.68,6l5.12,5.44" transform="translate(-753.44 -82.96)"/><polyline points="611.84 919.12 610.08 956.56 621.36 963.76 621.36 913.84"/><polyline points="638.4 817.52 629.76 827.2 629.76 912.4 564.48 912.4 564.48 827.2 638.4 828.64 637.2 817.52 555.36 817.52 555.36 921.52 639.36 922.48 639.36 820.24"/><polyline points="659.28 827.44 636.72 827.44 636.72 836.8 660 836.8"/><polyline points="658.32 899.92 635.76 899.92 636.72 909.04 660 909.04"/><polyline points="496.8 772.72 496.8 962.32 506.56 962.32 506.56 776.08"/><path d="M1289,751.61s-12-6.24-21.36,4.32c0,0-7.68,13.68,3.6,22.08,0,0,10.56,8.64,22.32-2.88,0,0,8.16-12.72-3.12-22.32l16.32-11.76a33.85,33.85,0,0,1,7.44,36.48s-8.88,30.24-44.88,22.08c0,0-27.6-9.12-23.76-39.12,0,0,5-26.64,29.52-30.24,0,0,18.24-2.88,30,9.36l5.28,11.76-7.92,6" transform="translate(-753.44 -82.96)"/><path d="M1258.91,642.08a11.79,11.79,0,0,0-15.23,3.45s-5.47,10.93,2.57,17.63c0,0,7.52,6.9,15.91-2.3,0,0,5.81-10.15-2.23-17.82l11.64-9.39s11.29,11.5,5.3,29.13c0,0-6.33,24.15-32,17.63,0,0-19.68-7.28-16.94-31.24,0,0,3.59-21.27,21-24.14,0,0,13-2.3,21.39,7.47l3.76,9.39-5.64,4.79" transform="translate(-753.44 -82.96)"/><path d="M1330.68,645.6s-7.55-3.74-13.44,2.6c0,0-4.83,8.22,2.27,13.26,0,0,6.64,5.19,14-1.73,0,0,5.13-7.64-2-13.4l10.27-7.07a19.77,19.77,0,0,1,4.68,21.92s-5.59,18.16-28.24,13.26c0,0-17.37-5.48-15-23.5,0,0,3.17-16,18.57-18.17,0,0,11.48-1.73,18.88,5.63l3.32,7.06-5,3.6" transform="translate(-753.44 -82.96)"/><path d="M1404.34,643.29s-8.07-4.44-14.36,3.08c0,0-5.17,9.73,2.42,15.7,0,0,7.1,6.15,15-2.05,0,0,5.49-9-2.1-15.87l11-8.37a25,25,0,0,1,5,26s-6,21.51-30.18,15.71c0,0-18.57-6.49-16-27.83,0,0,3.38-19,19.85-21.51,0,0,12.27-2.05,20.18,6.66l3.55,8.36-5.33,4.27" transform="translate(-753.44 -82.96)"/><polyline points="594.64 568.88 622.08 568.88 622.08 572.08 592.8 572.08"/><path d="M1250.29,564a11.79,11.79,0,0,0-15.23,3.45s-5.47,10.93,2.57,17.63c0,0,7.53,6.9,15.91-2.3,0,0,5.81-10.15-2.23-17.82l11.64-9.39s11.29,11.5,5.3,29.13c0,0-6.33,24.15-32,17.63,0,0-19.68-7.28-16.94-31.24,0,0,3.59-21.27,21-24.14,0,0,13-2.3,21.39,7.47l3.76,9.39-5.64,4.79" transform="translate(-753.44 -82.96)"/><path d="M1322.06,567.48s-7.55-3.74-13.44,2.6c0,0-4.83,8.22,2.27,13.26,0,0,6.64,5.19,14-1.73,0,0,5.14-7.64-2-13.4l10.27-7.07a19.77,19.77,0,0,1,4.68,21.92s-5.59,18.16-28.24,13.26c0,0-17.37-5.48-15-23.5,0,0,3.17-16,18.57-18.17,0,0,11.48-1.73,18.88,5.63l3.32,7.06-5,3.6" transform="translate(-753.44 -82.96)"/><path d="M1395.72,565.17s-8.07-4.44-14.36,3.08c0,0-5.17,9.73,2.42,15.7,0,0,7.1,6.15,15-2.05,0,0,5.49-9-2.1-15.87l11-8.37a25,25,0,0,1,5,26s-6,21.51-30.18,15.71c0,0-18.57-6.49-16-27.83,0,0,3.39-19,19.85-21.51,0,0,12.27-2.05,20.18,6.66l3.55,8.36-5.33,4.27" transform="translate(-753.44 -82.96)"/><polyline points="586.02 490.76 613.46 490.76 613.46 493.96 584.18 493.96"/><path d="M1261.16,303.94a11.14,11.14,0,0,0-14,3.07s-5,9.72,2.37,15.69c0,0,6.94,6.14,14.67-2.05,0,0,5.37-9-2.05-15.86l10.73-8.35a25.31,25.31,0,0,1,4.9,25.92s-5.84,21.49-29.52,15.69c0,0-18.15-6.48-15.62-27.8,0,0,3.31-18.93,19.41-21.49,0,0,12-2,19.73,6.65l3.47,8.36L1270,308" transform="translate(-753.44 -82.96)"/><path d="M1327.37,307.07s-7-3.33-12.39,2.31c0,0-4.46,7.32,2.08,11.81,0,0,6.13,4.62,13-1.54,0,0,4.74-6.8-1.81-11.94l9.47-6.28s9.2,7.7,4.32,19.5c0,0-5.15,16.17-26,11.8,0,0-16-4.87-13.79-20.91,0,0,2.92-14.24,17.13-16.17,0,0,10.59-1.54,17.42,5l3.06,6.28-4.6,3.21" transform="translate(-753.44 -82.96)"/><path d="M1395.32,305s-7.44-3.95-13.25,2.73c0,0-4.77,8.66,2.23,14,0,0,6.55,5.47,13.85-1.83,0,0,5.06-8-1.93-14.12l10.12-7.45a21.71,21.71,0,0,1,4.62,23.09s-5.51,19.15-27.85,14c0,0-17.12-5.77-14.74-24.76,0,0,3.13-16.87,18.32-19.15,0,0,11.31-1.82,18.61,5.93l3.27,7.44-4.91,3.8" transform="translate(-753.44 -82.96)"/><path d="M1256.28,396.56a11.78,11.78,0,0,0-15.22,3.45s-5.48,10.93,2.56,17.63c0,0,7.53,6.9,15.91-2.3,0,0,5.82-10.15-2.22-17.82l11.63-9.39s11.29,11.5,5.31,29.13c0,0-6.33,24.15-32,17.63,0,0-19.67-7.28-16.93-31.24,0,0,3.59-21.27,21-24.14,0,0,13-2.3,21.38,7.47l3.77,9.39-5.65,4.79" transform="translate(-753.44 -82.96)"/><path d="M1328.06,400.08s-7.55-3.74-13.44,2.6c0,0-4.84,8.22,2.26,13.26,0,0,6.65,5.19,14-1.73,0,0,5.13-7.64-2-13.4l10.27-7.07a19.75,19.75,0,0,1,4.68,21.92s-5.58,18.16-28.24,13.26c0,0-17.36-5.48-15-23.5,0,0,3.17-16,18.58-18.17,0,0,11.47-1.73,18.87,5.63l3.33,7.06-5,3.6" transform="translate(-753.44 -82.96)"/><path d="M1401.72,397.77s-8.07-4.44-14.37,3.08c0,0-5.16,9.73,2.42,15.7,0,0,7.1,6.15,15-2.05,0,0,5.49-9-2.09-15.87l11-8.37a25,25,0,0,1,5,25.95s-6,21.51-30.19,15.71c0,0-18.56-6.49-16-27.83,0,0,3.39-18.95,19.85-21.51,0,0,12.27-2.05,20.18,6.66l3.55,8.36-5.32,4.27" transform="translate(-753.44 -82.96)"/></g><g id="WM"><text class="cls-1" transform="translate(143.64 205.59)"><tspan class="cls-2">Y</tspan><tspan x="89.3" y="0">uyu</tspan></text></g></svg>