<svg xmlns="http://www.w3.org/2000/svg" viewBox="0 0 2060.17 1652.89"><defs><style>.cls-1{font-size:182.99px;font-family:MyriadPro-Regular, Myriad Pro;}.cls-2{letter-spacing:-0.05em;}</style></defs><g id="_5" data-name="5"><path d="M910.55,1680.07s-28.38-15-50.52,10.4c0,0-18.17,32.94,8.51,53.16,0,0,25,20.8,52.79-6.93,0,0,19.3-30.63-7.37-53.74l38.6-28.31s37.46,34.67,17.59,87.83c0,0-21,72.8-106.15,53.15,0,0-65.28-22-56.19-94.18,0,0,11.92-64.13,69.82-72.8,0,0,43.14-6.93,71,22.54l12.49,28.31-18.73,14.44" transform="translate(-134.24 -224.24)"/><polyline points="893.29 1470.96 893.29 1509.36 996.97 1509.36 996.97 1470.96"/><polyline points="1081.95 1470.96 1081.95 1509.36 1185.63 1509.36 1185.63 1470.96"/><polyline points="1266.25 1470.96 1266.25 1509.36 1369.93 1509.36 1369.93 1470.96"/><path d="M1513.76,938.72h156.48s167-13.44,211.2,153.6l1.92,593.28s-35.52,126.72-174.72,154.56L597,1839.2s-99.84,9.6-155.52-166.08V1093.28s23-110.92,174.72-154.82h931.2l79-39.1H613s-179.76,34.56-206.16,187.2l-4.8,583.68s33.6,201.12,191.28,206.88H1710.8S1842.56,1880,1921,1701.44v-612s-42.48-210-290.16-190.08" transform="translate(-134.24 -224.24)"/><polyline points="319.68 781.68 293.76 817.2 188.16 817.2 188.16 996.72 284.16 996.72 284.16 1036.08 179.52 1036.08 179.52 771.12 329.28 771.12"/><path d="M320.48,507.68v1.6l-1,834.56H134.24V507.68l39.36,19.2,3.84,785.28,104.64-2.88,1-790.08S222.56,427,166.88,531.68l-31.36-21.12s83.2-156,181.6,1.44" transform="translate(-134.24 -224.24)"/><polyline points="1740.49 786.96 1766.41 822.48 1872.01 822.48 1872.01 1002 1776.01 1002 1776.01 1041.36 1880.65 1041.36 1880.65 776.4 1730.89 776.4"/><path d="M2008.17,513v1.6l1,834.56h185.28V513l-39.36,19.2-3.84,785.28-104.64-2.88-1-790.08s60.48-92.16,116.16,12.48l31.36-21.12s-83.2-156-181.6,1.44" transform="translate(-134.24 -224.24)"/><path d="M1177.69,662.74s-28.38-15-50.52,10.4c0,0-18.16,32.93,8.52,53.15,0,0,25,20.8,52.79-6.93,0,0,19.3-30.62-7.38-53.73l38.6-28.31s37.46,34.66,17.6,87.82c0,0-21,72.8-106.15,53.16,0,0-65.28-22-56.2-94.18,0,0,11.92-64.14,69.82-72.81,0,0,43.14-6.93,71,22.54l12.48,28.31-18.73,14.44" transform="translate(-134.24 -224.24)"/><path d="M965.92,566.24l31.36,25s176.4-218.88,327.6,0l31.68-24.48S1186.56,310.88,965.92,566.24Z" transform="translate(-134.24 -224.24)"/><path d="M867.68,514.16l32.4,25.2s249.84-351.36,524.88,0l30.88-25.6S1192.16,123.2,867.68,514.16Z" transform="translate(-134.24 -224.24)"/><path d="M774.56,461.6l31.68,23s289-475.2,715.2,0l37.44-23.57S1165.28-72.16,774.56,461.6Z" transform="translate(-134.24 -224.24)"/></g><g id="WM"><text class="cls-1" transform="translate(831.68 1041.36)"><tspan class="cls-2">Y</tspan><tspan x="89.3" y="0">uyu</tspan></text></g></svg>