<svg xmlns="http://www.w3.org/2000/svg" viewBox="0 0 1834.99 1951.49"><defs><style>.cls-1{font-size:182.99px;font-family:MyriadPro-Regular, Myriad Pro;}.cls-2{letter-spacing:-0.05em;}</style></defs><g id="Layer_27" data-name="Layer 27"><path d="M1637.12,749.12c0-1.44,34.08-21.12,34.08-21.12l85,451.2,319.2-97.44,35.52,30.24-346.56,105.6s61.44,193.44-222.72,271.2c0,0-9.87-45.12-4.94-45.12s199.82-28.8,194.06-210.24Z" transform="translate(-284.75 -97.96)"/><path d="M1637.12,749.12,1539.55,667l-18.11-83.52-31.68-25S940.64,279.2,531.68,594.08L519.2,669l-91.68,64.8-39.36-24s94.56-63.36,93.6-63.84,11.52-76.32,11.52-76.32,432-381.6,1068.48-10.08L1605,681l66.24,47" transform="translate(-284.75 -97.96)"/><path d="M388.16,709.76,286.88,1265.12S247.67,1416.72,505.76,1485l20.16-30.72s-177.6-45.12-202.56-169.92c0,0,32.64-89.66,130.56-110.11l3.84-51.17L715,1053l51.84,39.36S1169,970.4,1504.12,1133.6l49-25.2,149.76,95.53L1687,1243.25l42,49.23,4.08-28.56-22.32-24s18-59,17-57.36-175.44-99.36-175.44-99.36l-43.68,27.36s-331.44-165.12-737.52-42.72l-53.28-35.52-280.8,75.36-1.44,49.44s-55.2,2.4-99.36,71L427,729.92l92.16-61-34.08-18.72" transform="translate(-284.75 -97.96)"/><path d="M1539.55,635.84S940.64,348.32,522.08,643l-7.28,23.5S931,407.8,1556,666.54" transform="translate(-284.75 -97.96)"/><path d="M784.16,559.52c-.54,13.23-51.93,493.82-51.93,493.82l26,18.12,51.89-525.23" transform="translate(-284.75 -97.96)"/><path d="M1452.32,608.48c2.88,4.32,72,505.44,72,505.44l25.92-18.72-60.48-486.72" transform="translate(-284.75 -97.96)"/><path d="M486.08,1452.32s-122.4-146,162.72-209.07c0,0,404.74-110.61,708.53-6.93,0,0,293.9,61.11,226.85,195.44l-48.72,20.56s97.21-67.08-19.78-130.17c0,0-188.89-112.41-429.12-110.31,0,0-338.48,2.5-469.44,64.76,0,0-214.56,57.64-113.76,157s8.6-8.14,8.6-8.14" transform="translate(-284.75 -97.96)"/><path d="M1528.16,1448s48.33-31-12.48-93.6c0,0-132.48-128.69-329.76-111.15,0,0-214.56-34.29-397.44,16.11,0,0-175.68,30.24-220.32,69.12,0,0-79.56,46-64.8,105.12L536,1454.45l-13.91-31s.18-91.79,194.4-132.45c0,0,266.3-63.36,387.31-34.56,0,0,216,5.18,319.73,66.24,0,0,127,66.47,93.6,110.88l4.32,25.44" transform="translate(-284.75 -97.96)"/><path d="M512,1468.16S471.68,1741.76,667.52,1903c0,0,191.52,187.2,411.84,138.24,0,0,216-15.84,341.28-195.84,0,0,149-160.75,121-356.64,0,0-30.24,13.92-25.92,15.36s37.54,174.24-158.35,377.28c0,0-118.13,133.92-296.69,136.8,0,0-215.63,15.09-334.08-96.48,0,0-228.17-194.4-186.81-453.6s-3.76-13.71-3.76-13.71l-41.27-3.57" transform="translate(-284.75 -97.96)"/><path d="M1131.2,1077.92s39.84-9.6,50.64,32.88c0,0,10.32,38.64-36.72,47.76,0,0-49.79,3.36-41.33-53.28,0,0,5.57-22.46,25-25.75l2.4,4.15s-29.76,10.08-23.76,43.44c0,0,4.67,18.62,24.48,24.24,0,0,15.12,5.76,35.52-8.64,0,0,12.72-17,7.92-36.72,0,0-3.84-17.76-29.76-24.48,0,0-20.32,1.19-24.09,3.91" transform="translate(-284.75 -97.96)"/><path d="M377.66,1287s39.84-9.6,50.64,32.88c0,0,10.32,38.64-36.72,47.76,0,0-49.79,3.36-41.33-53.28,0,0,5.57-22.46,25-25.75l2.4,4.15s-29.76,10.08-23.76,43.44c0,0,4.67,18.62,24.48,24.24,0,0,15.12,5.76,35.52-8.64,0,0,12.72-17,7.92-36.72,0,0-3.84-17.76-29.76-24.48,0,0-20.32,1.19-24.09,3.91" transform="translate(-284.75 -97.96)"/><path d="M816.93,1527.1s98.57-24.35,125.29,83.37c0,0,25.53,98-90.85,121.11,0,0-123.18,8.52-102.26-135.1,0,0,13.79-57,61.88-65.3l5.94,10.52s-73.63,25.56-58.78,110.16c0,0,11.55,47.21,60.56,61.47,0,0,37.41,14.6,87.88-21.91,0,0,31.47-43.21,19.6-93.12,0,0-9.5-45-73.63-62.07,0,0-50.27,3-59.6,9.92" transform="translate(-284.75 -97.96)"/><path d="M1137.68,1334.84c-.12-.36-4.44-7-4.44-7s226.8,62.88,226.68,62.52,0,22.08,0,22.08,11.76,239.52-105.36,319.2c0,0-160.23-101.41-125.71-382.39l3-21.41,5.6,8.6s-16.32,267.52,113.28,378.88c0,0,67.68-5.28,97.92-312l-208.8-69.5" transform="translate(-284.75 -97.96)"/><path d="M961.19,1251.67s8.25,621.13,289.53,670.09l-13.55,6s-294.38,9.33-292.58-674.65" transform="translate(-284.75 -97.96)"/><path d="M1535.46,1452.32c-7.3-4.32-63.89,37.44-63.89,37.44L1450.88,1677s-44.64,282.24-390.24,313.92c0,0-418.31,54.3-430.07-317.17l-4.81-35.86L597,1596.32l-23-99.2-48-42.88,21.44-2.23s35.2,34.55,36.16,35.51,22.72,106.24,23.68,106.88,25.92,36.48,25.92,37.76,2.72,409.12,430.4,337.12,377.28-481.44,388.8-480.48" transform="translate(-284.75 -97.96)"/><path d="M1518.52,1441.85c-1.59,4.05.24,74.48.24,74.48s25.45-3.46,25.28-5.49,2-32.79,0-35.1-12.67-54.14-12.67-54.14l-14.25,12" transform="translate(-284.75 -97.96)"/><path d="M1471.57,1489.76s52.75-27.84,52.27-30.72-1-24.48-3.36-24-59.52,47.52-59.52,47.52l-2.88,13" transform="translate(-284.75 -97.96)"/><path d="M746.72,1284.35c-5.74,1.22-126.72,156.45,0,579.81,0,0-167.23-318.67-14.49-579.81" transform="translate(-284.75 -97.96)"/><path d="M640,1312.87s-16.23,423.37,102.55,537.26c0,0-171-135.26-120.85-537.26" transform="translate(-284.75 -97.96)"/><path d="M732.23,453s-48.87-81.36,3-238.32c0,0,148.32-293,754.56,49.68l433.92-121,162.24,113.76s54.72,495.36,25,854.88l-35.52-30.24s7.68-570.24-26.88-802.56L1923.68,189l-433.92,125.1S1001.12,10.4,771.2,238.88c0,0-34.14,78.51-9.15,193.82l-29.82,40.42" transform="translate(-284.75 -97.96)"/><path d="M746.72,375.2s288-169,577.92,0l559.68,328.32h83.52L2077.28,765l16.36,35.22L1956.32,728h-72l-577-331S1082.72,244,746.72,397" transform="translate(-284.75 -97.96)"/><polyline points="1638.93 91 1667.97 868.36 1674.21 868.36 1644.21 85"/><polyline points="1671.57 865.48 1799.01 997.24 1782.45 997.24 1667.33 872.16"/><polyline points="1667.97 868.36 1439.01 958.36 1442.61 969.64 1674.21 873.29"/><polygon points="1601.49 680.44 1408.21 758.84 1408.21 751.48 1592.53 680.44 1279.17 504.04 1287.5 504.04 1595.25 676.12 1577.01 377.32 1582.53 373.96 1601.49 680.44"/><polyline points="1238.61 202.15 1582.53 373.96 1578.93 379.48 1228.05 205.24"/></g><g id="WM"><text class="cls-1" transform="translate(683.55 710.88)"><tspan class="cls-2">Y</tspan><tspan x="89.3" y="0">uyu</tspan></text></g></svg>