<svg xmlns="http://www.w3.org/2000/svg" viewBox="0 0 1998.72 1094.56"><defs><style>.cls-1{font-size:182.99px;font-family:MyriadPro-Regular, Myriad Pro;}.cls-2{letter-spacing:-0.05em;}</style></defs><g id="Layer_28" data-name="Layer 28"><path d="M1984.46,1095.2s94.26,197.28-111.66,390.24l-289.44,125.28s-195.84,56.16-148.32-233.28l49-11.52s-77.08,250.16,110.49,204.48l252.39-113.76s182.88-146.88,90.72-373l17.28-38.88,195.84,57.6v-20.16s-66.24-87.84-172.8-37.44l53.28-57.6s96.48-7.2,157,92.16v72l-211.68-59" transform="translate(-189.44 -520.55)"/><path d="M1486.88,1594.86c-6.23,1.34-944.64-406.06-944.64-406.06l-201.6-203,49.57-58.83s46.91,21.39,42.59,21.39-46.08,37.44-46.08,37.44,198.72,168.42,190.08,168.45,871.78,377.31,871.78,377.31,63.39,47.66,58.05,53.35" transform="translate(-189.44 -520.55)"/><path d="M2060.44,1030.4s-163.33,5.78-377.72,223.2c0,0-17.41,120.28-227.87,119.18,0,0-113.41-15.52-166.69-41.43L576.8,1031.12,189.44,844.64l41.76-18.72,345.6,165.6,779,323.39s180,69.73,283.68-61.31l14.4-25.92s220.32-221.92,384.48-240.56c0,0,97.92,4.4,149.76,80.72v74.49l-52.94-5.74,15.5-54.35-95-59" transform="translate(-189.44 -520.55)"/><path d="M1859.84,1105.28s118.5,131.64-58.11,302c0,0-160.77,146.82-252.93,59.94,0,0-43.39-43.68-41.85-108.48,0,0,90.57-18.74,89.44-14.61s-35.2,90.44,80.29,61.17c0,0,92.21-19.48,131.2-131.66,0,0,24.44-63-13.43-119.26,0,0,28-47.64,30.88-49.08" transform="translate(-189.44 -520.55)"/><path d="M2060.68,990.08C2058.63,989.7,597,530.72,597,530.72S189,432.8,189.44,844.64L239.1,829.7S202.83,489.8,587.36,569.12L1996.64,1003l105.6,17.28" transform="translate(-189.44 -520.55)"/><polyline points="1259.14 807.21 37.44 274.79 46.56 290.01 1278.24 823.29"/><path d="M1947.6,987.94s-426.16,232.23-398.8,331.5c0,0-13.42,4.39-11.73,3.88s74.62-159,397.17-339.49" transform="translate(-189.44 -520.55)"/><path d="M1318.88,847.52c-.48-2.16,113.28-31.68,113.28-31.68s-.8,83.58,0,83.32,110.16-41.66,110.16-41.66-18.49,73.24-12.84,69.43,108.06-34.46,108.06-34.46L1520,942.56l11.52-73.44-108,43.2,3.6-86.4-108.24,32.4" transform="translate(-189.44 -520.55)"/><path d="M1318.88,833.84c3.12-2.16,15.36-7.92,15.36-7.92L1520,901.52l-9.36,25.41L1318.88,838.8" transform="translate(-189.44 -520.55)"/><path d="M640.88,602.72c-2.16.72-10.08,15.12-10.08,15.12L767.6,669l15.12-13.68" transform="translate(-189.44 -520.55)"/><path d="M393.5,991.52c6.18-2.16,95.46-8.64,96.18-9.36s-6.48,76.32-2.88,73.44,93.6-42.48,93.6-42.48l6.64,22.32S483.2,1083,481,1082.24s-18-20.56-18-20.56,18.72-63,16.56-63.68-86.1,17.22-86.1,17.22" transform="translate(-189.44 -520.55)"/><path d="M638,1102.4c2.88-2.16,19.44-8.64,19.44-8.64l63.36,33.12-18,19.44" transform="translate(-189.44 -520.55)"/><path d="M733,1157.84c2.88-1.44,23.76-11.52,23.76-11.52l105.84,51.84s-8.64,17.28-10.8,15.84S733,1157.84,733,1157.84Z" transform="translate(-189.44 -520.55)"/><path d="M1060.64,1227.68c-6.17,5-19.44,50.4-19.44,50.4s103-23.79,99.36-17.19-49.63,87.75-49.63,87.75,125.23,42.48,127.39,40.32S1348,1351.81,1348,1351.81l-20.27-14.69-101.52,29.52-101.52-29.52,32.4-66.24-11.28-26.64-24,3.6s-51.84,16-54,13.05,18.72-41.85,16.56-40.41" transform="translate(-189.44 -520.55)"/><path d="M1575.06,1547.2s-12-6.24-21.36,4.32c0,0-7.68,13.68,3.6,22.08,0,0,10.56,8.64,22.32-2.88,0,0,8.16-12.72-3.12-22.32l16.32-11.76a33.85,33.85,0,0,1,7.44,36.48s-8.88,30.24-44.88,22.08c0,0-27.6-9.12-23.76-39.12,0,0,5-26.64,29.52-30.24,0,0,18.24-2.88,30,9.36l5.28,11.76-7.92,6" transform="translate(-189.44 -520.55)"/><path d="M1703.76,1367.89s-12-6.24-21.36,4.32c0,0-7.68,13.68,3.6,22.08,0,0,10.56,8.64,22.32-2.88,0,0,8.16-12.72-3.12-22.32l16.32-11.76a33.85,33.85,0,0,1,7.44,36.48s-8.88,30.24-44.88,22.08c0,0-27.6-9.12-23.76-39.12,0,0,5-26.64,29.52-30.24,0,0,18.24-2.88,30,9.36l5.28,11.76-7.92,6" transform="translate(-189.44 -520.55)"/><path d="M1789.69,1221.43s-21.07-10.52-37.5,7.29c0,0-13.48,23.07,6.32,37.24,0,0,18.54,14.57,39.18-4.86,0,0,14.33-21.45-5.47-37.64l28.65-19.83s27.8,24.28,13.06,61.52c0,0-15.59,51-78.79,37.23,0,0-48.45-15.38-41.71-66,0,0,8.85-44.93,51.82-51,0,0,32-4.85,52.67,15.79l9.27,19.83-13.91,10.12" transform="translate(-189.44 -520.55)"/></g><g id="WM"><text class="cls-1" transform="translate(608.4 406.38)"><tspan class="cls-2">Y</tspan><tspan x="89.3" y="0">uyu</tspan></text></g></svg>