<svg xmlns="http://www.w3.org/2000/svg" viewBox="0 0 976.33 1869.12"><defs><style>.cls-1{font-size:182.99px;font-family:MyriadPro-Regular, Myriad Pro;}.cls-2{letter-spacing:-0.05em;}</style></defs><g id="Layer_29" data-name="Layer 29"><path d="M1569.76,204.64c-.32-1,40.32-39,40.32-39l9.28,1685.12S1505.76,2005,1504.48,2005s-8-62.08-8-62.08l84.16-104S1571,199.2,1570.4,198.56" transform="translate(-643.03 -141.92)"/><polyline points="846.73 22.08 842.57 25.28 856.33 1861.12 900.03 1811.98 884.17 52.48"/><path d="M643,204.46l964.17-.14s-11.52.32-12.48,0-70.08,0-70.08,0l-34.88-36.8,120.32-1.92s-732.33,1.69-922.41.67c-28.67-.16-45-.38-44.63-.67L663.2,1962.08l37.44-36L683.36,179.36" transform="translate(-643.03 -141.92)"/><path d="M663.2,1920.32c7.2,1.44,842.71,41.76,842.71,41.76v49l-842.71-49" transform="translate(-643.03 -141.92)"/><path d="M670.4,173.6s-4.32-31.68,0-31.68h365.76v43.2" transform="translate(-643.03 -141.92)"/><polyline points="767.53 36 758.89 0 842.57 0 830.89 44.64"/><path d="M692,234.8H853.28V511.28s-155.9,2.86-161.28,0,16.56-18,16.56-18l120.24,2.16,1.44-239.76H714.08V501.92l-24,10.63Z" transform="translate(-643.03 -141.92)"/><path d="M712.16,280.16c-.72.48,65.28-1.68,65.28,0v78.72l-68.64,1" transform="translate(-643.03 -141.92)"/><polyline points="67.93 246.24 140.17 244.8 140.17 336 66.01 337.44"/><path d="M692,531.93H853.28V808.41s-155.9,2.86-161.28,0,16.56-18,16.56-18l120.24,2.16,1.44-239.76H714.08V799.05l-24,10.63Z" transform="translate(-643.03 -141.92)"/><path d="M712.16,577.29c-.72.48,65.28-1.68,65.28,0V656l-68.64,1" transform="translate(-643.03 -141.92)"/><polyline points="67.93 543.37 140.17 541.93 140.17 633.13 66.01 634.57"/><path d="M697.76,840.17H859v276.48s-155.9,2.85-161.28,0,16.56-18,16.56-18l120.24,2.16L836,861.05H719.84v246.24l-24,10.62Z" transform="translate(-643.03 -141.92)"/><path d="M717.92,885.53c-.72.48,65.28-1.68,65.28,0v78.72l-68.64,1" transform="translate(-643.03 -141.92)"/><polyline points="73.69 851.61 145.93 850.17 145.93 941.37 71.77 942.81"/><path d="M701.6,1137.49H862.88V1414s-155.9,2.85-161.28,0,16.56-18,16.56-18l120.24,2.16,1.44-239.76H723.68v246.24l-24,10.63Z" transform="translate(-643.03 -141.92)"/><path d="M721.76,1182.85c-.72.48,65.28-1.68,65.28,0v78.72l-68.64,1" transform="translate(-643.03 -141.92)"/><polyline points="77.53 1148.93 149.77 1147.49 149.77 1238.69 75.61 1240.13"/><path d="M697.76,1432.18H859v276.48s-155.9,2.86-161.28,0,16.56-18,16.56-18l120.24,2.16L836,1453.06H719.84V1699.3l-24,10.63Z" transform="translate(-643.03 -141.92)"/><path d="M717.92,1477.54c-.72.48,65.28-1.68,65.28,0v78.72l-68.64,1" transform="translate(-643.03 -141.92)"/><polyline points="73.69 1443.62 145.93 1442.18 145.93 1533.38 71.77 1534.82"/><path d="M688.16,1726.88H849.44V1961s-155.9,2.41-161.28,0,16.56-15.25,16.56-15.25L825,1947.59l1.44-203H710.24v208.52l-24,9Z" transform="translate(-643.03 -141.92)"/><path d="M708.32,1765.29c-.72.41,65.28-1.42,65.28,0V1832l-68.64.81" transform="translate(-643.03 -141.92)"/><polyline points="64.09 1714.83 136.33 1713.61 136.33 1790.84 62.17 1792.06"/><path d="M1308.12,1351.93s-33.94-17.08-60.41,11.83c0,0-21.72,37.47,10.18,60.47,0,0,29.86,23.66,63.12-7.89,0,0,23.08-34.83-8.82-61.12l46.15-32.2s44.79,39.43,21,99.9c0,0-25.11,82.81-126.92,60.46,0,0-78-25-67.19-107.13,0,0,14.26-73,83.48-82.81,0,0,51.58-7.89,84.84,25.63l14.93,32.21-22.4,16.43" transform="translate(-643.03 -141.92)"/><path d="M1229.68,1494.84s-19.54-9.62-34.78,6.67c0,0-12.51,21.11,5.86,34.07,0,0,17.2,13.33,36.35-4.45,0,0,13.29-19.62-5.08-34.43l26.57-18.15s25.8,22.22,12.12,56.29c0,0-14.46,46.65-73.08,34.06,0,0-45-14.07-38.69-60.35,0,0,8.2-41.11,48.07-46.66,0,0,29.7-4.44,48.85,14.44l8.6,18.14-12.9,9.26" transform="translate(-643.03 -141.92)"/><path d="M1148.61,932.78s-14.17-7.65-25.22,5.3c0,0-9.06,16.79,4.25,27.09,0,0,12.47,10.6,26.35-3.53,0,0,9.63-15.61-3.68-27.39l19.26-14.42s18.7,17.66,8.78,44.75c0,0-10.48,37.1-53,27.09,0,0-32.58-11.19-28.05-48,0,0,6-32.69,34.85-37.1,0,0,21.53-3.54,35.41,11.48l6.23,14.43-9.35,7.36" transform="translate(-643.03 -141.92)"/><path d="M1147.61,499.92s-18.78-9.37-33.43,6.49c0,0-12,20.55,5.63,33.17,0,0,16.53,13,34.94-4.33,0,0,12.77-19.1-4.89-33.52l25.55-17.67s24.79,21.63,11.64,54.8c0,0-13.9,45.43-70.24,33.17,0,0-43.2-13.7-37.19-58.77,0,0,7.89-40,46.2-45.42,0,0,28.55-4.33,47,14.06l8.26,17.66-12.39,9" transform="translate(-643.03 -141.92)"/><polyline points="842.57 25.28 853.45 62.42 964.17 62.4 967.05 23.68"/></g><g id="WM"><text class="cls-1" transform="translate(362.22 1584.96)"><tspan class="cls-2">Y</tspan><tspan x="89.3" y="0">uyu</tspan></text></g></svg>