<svg id="Layer_32" data-name="Layer 32" xmlns="http://www.w3.org/2000/svg" viewBox="0 0 2284.77 2158.27"><path d="M1451.21,2037.45l10.84,16.11s-458.21,275.12-1014.38,0l22.18-12.82S1015,2297.46,1451.21,2037.45Z" transform="translate(0 -17.56)"/><polygon points="455.6 2031.41 468.38 1272.74 469.86 2023.17 455.6 2031.41"/><polygon points="469.86 1265.34 465.42 1268.3 447.67 1280.13 447.67 2035.99 469.86 2023.17 469.86 1265.34"/><polygon points="318.98 1114.46 447.67 1280.13 465.42 1268.3 332.29 1095.23 318.98 1114.46"/><polygon points="61.6 1024.23 318.98 1114.46 332.29 1095.23 73.44 1007.96 61.6 1024.23"/><path d="M165.14,562.55H135.56S-111.65,729,61.6,1041.8l11.84-16.27S-93.37,750.15,165.14,562.55Z" transform="translate(0 -17.56)"/><polygon points="135.56 544.98 32.02 432.56 69 441.44 165.14 544.98 135.56 544.98"/><polygon points="32.02 432.56 332.29 309.79 332.29 329.02 69 441.44 32.02 432.56"/><polyline points="332.29 309.79 449.15 355.65 449.15 375.62 332.29 329.02 335.25 320.15"/><path d="M465.42,393.18c433.89-199,1068.95-329.61,1068.95-329.61,110.44-35.5,224.83-5.92,224.83-5.92L1775,32.78C1595.51-69,449.15,373.21,449.15,373.21" transform="translate(0 -17.56)"/><path d="M1775,32.78,2236.49,629.6l-21.7,7.89L1759.2,57.65Z" transform="translate(0 -17.56)"/><path d="M2236.49,629.6c11.83,5.92,134.11,345.14-63.12,534.48l-19.72-17.75s195.25-151.86,61.14-508.84Z" transform="translate(0 -17.56)"/><path d="M2173.37,1164.08S1739.48,1324.82,1689.19,1310l-7.89-16.76s358-80.86,472.35-146.93Z" transform="translate(0 -17.56)"/><path d="M1681.3,1293.26s-204.13,107.49-308.65,48.32l19.72,29.58s96.64,49.31,296.82-61.14Z" transform="translate(0 -17.56)"/><path d="M1372.65,1341.58s-13.81,136.08,74.94,203.14l21.7-11.83s-82.84-73-76.92-161.73Z" transform="translate(0 -17.56)"/><path d="M1447.59,1544.72s72.5,438.17,3.62,492.73l10.84,16.11s88.1,3,7.24-520.67Z" transform="translate(0 -17.56)"/><path d="M469.85,1696.78s633.91,96.44,992.2-13v-22.18s-486.32,119.81-992.2,0Z" transform="translate(0 -17.56)"/><path d="M1447.59,1556.55S1281.92,1657.14,921,1570.36c0,0-184.43-68.74-115.57-491.58l13.11,34s-19.81,386.56,88.66,420.09c0,0,28.1,46.9,260.33,45.36,0,0,114.18,21.69,266.15-45.36Z" transform="translate(0 -17.56)"/><path d="M1291.78,1361.3l-237.94,9.86v-19.72h176.81S642.81,964.51,1024.49,192.57l29.35-8.51S627.14,882.05,1291.78,1361.3Z" transform="translate(0 -17.56)"/><path d="M824.35,254.8S447.09,880.08,1053.84,1371.16v-19.72S435,846.11,876.23,237.9Z" transform="translate(0 -17.56)"/><path d="M1759.2,77.73c15.78,0-7.88,553.84-55.22,664.29l30-7.89s49.52-219,54.6-639Z" transform="translate(0 -17.56)"/><polygon points="1703.98 724.46 2146.68 1132.64 2164.73 1118.66 1733.07 724.46 1703.98 724.46"/><polygon points="2117.66 685.5 2133.93 670.71 2261.45 834.89 2253.74 858.57 2117.66 685.5"/><path d="M485.66,384s-265.79,237.7-36.51,782h20.7S258.33,668.42,495,409.88Z" transform="translate(0 -17.56)"/><rect x="449.15" y="1148.49" width="20.71" height="98.66"/><polygon points="151.83 555.01 196.95 583.44 226.78 583.44 254.39 594.29 368.01 544.98 465.42 388.54 439.78 375.62 355.92 525.26 254.39 570.62 228.75 560.76 196.95 562.73 165.14 544.98 151.83 555.01"/><polygon points="63.08 957.18 63.08 941.4 308.62 933.51 308.62 947.32 63.08 957.18"/><path d="M1688.2,384s-46.19,285-319.91,324.48S1023,502.17,1053.84,451.5c0,0-38.73-157.36,275.13-316,0,0,325.23-62.5,359.23,237.74l15.78-2s22.79-292.91-376.15-252c0,0-254,45.38-298.35,332.23,0,0-26.47,306.3,338.81,276.71,0,0,292.3-29.67,335.69-344.2" transform="translate(0 -17.56)"/><path d="M1682,335.14s11.43,33.5-.66,74.74h18.44s15.31-84.71,0-74.74Z" transform="translate(0 -17.56)"/><path d="M967.17,315.4S956,403.29,889.65,415.46,806,351.84,813.46,336.21c0,0-9.38-48.52,66.67-97.45,0,0,78.8-19.27,87,73.31l3.82-.61s5.52-90.32-91.14-77.7c0,0-61.55,14-72.29,102.45,0,0-6.41,94.45,82.09,85.33,0,0,70.83-9.15,81.34-106.14" transform="translate(0 -17.56)"/><path d="M965.65,300.33a52.37,52.37,0,0,1-.16,23.05H970s3.71-26.12,0-23.05Z" transform="translate(0 -17.56)"/><path d="M1396.68,1144.71s-6.75,40.45-46.78,46-50.5-29.28-46-36.48c0,0-5.66-22.33,40.24-44.85,0,0,47.56-8.87,52.53,33.74l2.31-.28s3.33-41.57-55-35.76c0,0-37.15,6.44-43.63,47.15,0,0-3.87,43.48,49.55,39.28,0,0,42.74-4.21,49.09-48.85" transform="translate(0 -17.56)"/><path d="M658.57,1951.81s-7.37,52-51.07,59.21-55.14-37.64-50.21-46.89c0,0-6.18-28.71,43.93-57.67,0,0,51.93-11.4,57.35,43.38l2.52-.36s3.64-53.44-60.05-46c0,0-40.56,8.28-47.64,60.62,0,0-4.23,55.89,54.1,50.49,0,0,46.67-5.41,53.59-62.81" transform="translate(0 -17.56)"/><path d="M657.58,1942.9a27.93,27.93,0,0,1-.11,13.63h2.95s2.44-15.45,0-13.63Z" transform="translate(0 -17.56)"/><path d="M1093.71,172.74s-262,478.56-39.87,697.48c0,0,431.22-41.42,604.78-155.81,0,0,120.65-153.09,58.35-664.27l-35.67-3.27S1753.2,610,1631,695.67c0,0-367.41,153.1-577.17,149,0,0-177.4-328.42,78.59-675.08Z" transform="translate(0 -17.56)"/><path d="M1645.78,1286.06s-6.75,40.45-46.78,46-50.5-29.28-46-36.47c0,0-5.66-22.34,40.24-44.86,0,0,47.56-8.87,52.53,33.74l2.31-.28s3.33-41.57-55-35.76a57,57,0,0,0-21,9.41c-9.63,6.86-19.59,18.45-22.66,37.75,0,0-3.87,43.47,49.55,39.27,0,0,42.75-4.21,49.09-48.85" transform="translate(0 -17.56)"/><path d="M156.89,596.57Q63.49,727.05,66.66,935.3S25.55,828.37,46,759.28C46,759.28,84.41,636.51,156.89,596.57Z" transform="translate(0 -17.56)"/><path d="M952.92,1984.13s-5.61,43.9-38.81,50-41.88-31.77-38.14-39.58c0,0-4.7-24.23,33.37-48.67,0,0,39.45-9.63,43.58,36.61l1.91-.3s2.77-45.11-45.62-38.81c0,0-30.82,7-36.19,51.17,0,0-3.21,47.18,41.09,42.62,0,0,35.46-4.57,40.72-53" transform="translate(0 -17.56)"/><polyline points="139.58 476.94 379.94 352.69 349.62 394.11 152.89 488.77"/><polyline points="355.92 449.57 197.65 517.62 246.46 527.97 344.05 479.16"/><path d="M896.45,664.9S885.26,752.8,818.94,765s-83.67-63.62-76.19-79.25c0,0-9.39-48.52,66.66-97.45,0,0,78.8-19.27,87,73.31l3.82-.61s5.53-90.32-91.14-77.69c0,0-61.55,14-72.29,102.44,0,0-6.41,94.45,82.1,85.33,0,0,70.82-9.15,81.33-106.14" transform="translate(0 -17.56)"/><path d="M1636.69,1313.91l-5.46-2.92s30.48-39.77-10.8-56.57c0,0-37-6-56.88,21.6,0,0-12.49,19.78-4.32,35,0,0,4.32,16.15,25.2,18.79l12,2.64L1584,1337.7s-28.08,1.77-34.56-26.71,0-1.13,0-1.13-11.28-27.6,11.52-49c0,0,23.93-22.54,42.72-16.56,0,0,25.68-1.44,35.28,12,0,0,13.44,17.28,12.48,27.36,0,0-6.48,29-12.72,34.08,0,0-26.13,28.8-52.8,19.94s-6-3.62-6-3.62l8.16-2.4s40.56-10.56,53-32.88" transform="translate(0 -17.56)"/><path d="M1397.5,1146.85s-6.75,40.45-46.78,46.05-50.5-29.28-46-36.47c0,0-5.66-22.34,40.24-44.86,0,0,47.56-8.87,52.53,33.74l2.31-.28s3.33-41.57-55-35.76a57,57,0,0,0-21,9.41c-9.63,6.86-19.59,18.46-22.66,37.75,0,0-3.87,43.47,49.55,39.27,0,0,42.75-4.21,49.09-48.85" transform="translate(0 -17.56)"/><path d="M1388.41,1174.7l-5.46-2.92s30.48-39.77-10.8-56.57c0,0-37-6-56.88,21.6,0,0-12.49,19.78-4.32,35,0,0,4.32,16.15,25.2,18.79l12,2.64-12.51,5.28s-28.08,1.77-34.56-26.71,0-1.13,0-1.13-11.28-27.6,11.52-49c0,0,23.93-22.54,42.72-16.56,0,0,25.68-1.44,35.28,12,0,0,13.44,17.28,12.48,27.36,0,0-6.48,29-12.72,34.08,0,0-26.13,28.8-52.8,19.94s-6-3.62-6-3.62l8.16-2.4s40.56-10.56,53-32.88" transform="translate(0 -17.56)"/><path d="M964.46,318.7s-10.85,84.22-75.17,95.88-81.14-61-73.89-75.94c0,0-9.1-46.5,64.65-93.39,0,0,76.42-18.47,84.41,70.25l3.71-.58s5.35-86.55-88.39-74.46c0,0-16.52,3.72-33.7,19.58-15.47,14.29-31.47,38.43-36.4,78.6,0,0-6.22,90.51,79.61,81.77,0,0,68.68-8.77,78.88-101.71" transform="translate(0 -17.56)"/><path d="M949.84,376.69l-8.76-6.09s49-82.8-17.35-117.78c0,0-59.39-12.49-91.4,45,0,0-20.07,41.2-6.94,72.81,0,0,6.94,33.62,40.49,39.12l19.33,5.49-20.1,11s-45.13,3.7-55.53-55.61,0-2.35,0-2.35-18.12-57.47,18.51-101.94c0,0,38.44-46.93,68.64-34.48,0,0,41.27-3,56.69,25,0,0,21.6,36,20.05,57,0,0-10.41,60.46-20.43,71,0,0-42,60-84.84,41.52s-9.64-7.54-9.64-7.54l13.11-5s65.17-22,85.22-68.46" transform="translate(0 -17.56)"/><path d="M891.16,667.16s-10.95,81.8-75.82,93.11-81.84-59.2-74.53-73.74c0,0-9.18-45.15,65.21-90.68,0,0,77.08-17.94,85.14,68.22l3.74-.57s5.4-84-89.15-72.3c0,0-16.67,3.6-34,19C756.15,624.08,740,647.53,735,686.53c0,0-6.27,87.89,80.3,79.4,0,0,69.28-8.51,79.56-98.77" transform="translate(0 -17.56)"/><path d="M876.42,723.48l-8.84-5.92s49.4-80.4-17.5-114.36c0,0-59.9-12.13-92.19,43.67,0,0-20.24,40-7,70.69,0,0,7,32.66,40.84,38l19.5,5.34L791,771.57s-45.51,3.59-56-54,0-2.28,0-2.28-18.28-55.8,18.67-99c0,0,38.78-45.57,69.24-33.48,0,0,41.62-2.91,57.18,24.26,0,0,21.78,34.93,20.22,55.31,0,0-10.5,58.71-20.61,68.9,0,0-42.36,58.23-85.57,40.32s-9.73-7.32-9.73-7.32l13.23-4.86s65.73-21.34,86-66.47" transform="translate(0 -17.56)"/><path d="M960.72,1984.79s-6.76,40.45-46.79,46-50.49-29.28-46-36.47c0,0-5.66-22.34,40.24-44.86,0,0,47.56-8.87,52.53,33.74L963,1983s3.33-41.57-55-35.76a57,57,0,0,0-21,9.41c-9.62,6.86-19.58,18.45-22.65,37.75,0,0-3.87,43.47,49.54,39.27,0,0,42.75-4.21,49.1-48.85" transform="translate(0 -17.56)"/><path d="M951.62,2012.64l-5.45-2.92s30.48-39.77-10.8-56.57c0,0-37-6-56.88,21.6,0,0-12.49,19.78-4.32,35,0,0,4.32,16.15,25.2,18.79l12,2.64-12.51,5.28s-28.09,1.77-34.56-26.71,0-1.13,0-1.13-11.28-27.6,11.52-49c0,0,23.92-22.54,42.72-16.56,0,0,25.68-1.44,35.28,12,0,0,13.44,17.28,12.48,27.36,0,0-6.48,29-12.72,34.08,0,0-26.14,28.8-52.8,19.94s-6-3.62-6-3.62l8.16-2.4s40.56-10.56,53-32.88" transform="translate(0 -17.56)"/><path d="M654,1951.86s-6.76,47.59-46.79,54.18-50.49-34.45-46-42.91c0,0-5.66-26.27,40.24-52.76,0,0,47.56-10.44,52.53,39.69l2.31-.33s3.33-48.9-55-42.07c0,0-10.29,2.1-21,11.06-9.62,8.08-19.58,21.72-22.65,44.41,0,0-3.87,51.14,49.54,46.2,0,0,42.75-5,49.1-57.47" transform="translate(0 -17.56)"/><path d="M644.94,1984.63l-5.45-3.44s30.48-46.78-10.8-66.55c0,0-37-7.05-56.88,25.41,0,0-12.49,23.28-4.32,41.14,0,0,4.32,19,25.2,22.1l12,3.1-12.51,6.22s-28.09,2.09-34.56-31.42,0-1.33,0-1.33-11.28-32.47,11.52-57.59c0,0,23.92-26.52,42.72-19.48,0,0,25.68-1.7,35.28,14.11,0,0,13.44,20.33,12.48,32.19,0,0-6.48,34.16-12.72,40.08,0,0-26.14,33.88-52.8,23.46s-6-4.26-6-4.26l8.16-2.82s40.56-12.42,53-38.68" transform="translate(0 -17.56)"/><polyline points="465.42 1237.33 469.86 1280.13 447.67 1258.73 462.73 1220.05"/><path d="M32,590.07" transform="translate(0 -17.56)"/></svg>